<svg width="56" height="62" viewBox="0 0 56 62" fill="none" xmlns="http://www.w3.org/2000/svg">
<circle cx="45" cy="31" r="10.85" fill="#3C7EFF" stroke="black" stroke-width="0.3"/>
<path d="M27.85 27.5C27.85 35.4303 21.6442 41.85 14 41.85C6.35577 41.85 0.15 35.4303 0.15 27.5C0.15 19.5697 6.35577 13.15 14 13.15C21.6442 13.15 27.85 19.5697 27.85 27.5Z" fill="#3C7EFF" stroke="black" stroke-width="0.3"/>
<path d="M38.85 10C38.85 15.4332 34.2231 19.85 28.5 19.85C22.7769 19.85 18.15 15.4332 18.15 10C18.15 4.56681 22.7769 0.15 28.5 0.15C34.2231 0.15 38.85 4.56681 38.85 10Z" fill="#3C7EFF" stroke="black" stroke-width="0.3"/>
<circle cx="29" cy="46" r="15.85" fill="#3C7EFF" stroke="black" stroke-width="0.3"/>
</svg>
