<svg width="41" height="32" viewBox="0 0 41 32" fill="none" xmlns="http://www.w3.org/2000/svg">
<path d="M36.9888 0.994324H3.65548C1.8152 0.994324 0.322144 2.45242 0.322144 4.24961V28.1217C0.322144 29.9189 1.8152 31.377 3.65548 31.377H36.9888C38.8291 31.377 40.3221 29.9189 40.3221 28.1217V4.24961C40.3221 2.45242 38.8291 0.994324 36.9888 0.994324ZM12.5444 7.5049C14.9958 7.5049 16.9888 9.45129 16.9888 11.8453C16.9888 14.2393 14.9958 16.1857 12.5444 16.1857C10.093 16.1857 8.09992 14.2393 8.09992 11.8453C8.09992 9.45129 10.093 7.5049 12.5444 7.5049ZM20.3221 23.5643C20.3221 24.2832 19.6277 24.8664 18.7666 24.8664H6.32214C5.46103 24.8664 4.76659 24.2832 4.76659 23.5643V22.2622C4.76659 20.1056 6.85687 18.3559 9.43326 18.3559H9.78048C10.6346 18.7017 11.5652 18.8984 12.5444 18.8984C13.5235 18.8984 14.461 18.7017 15.3083 18.3559H15.6555C18.2319 18.3559 20.3221 20.1056 20.3221 22.2622V23.5643ZM35.8777 19.9835C35.8777 20.2819 35.6277 20.526 35.3221 20.526H25.3221C25.0166 20.526 24.7666 20.2819 24.7666 19.9835V18.8984C24.7666 18.6 25.0166 18.3559 25.3221 18.3559H35.3221C35.6277 18.3559 35.8777 18.6 35.8777 18.8984V19.9835ZM35.8777 15.6431C35.8777 15.9415 35.6277 16.1857 35.3221 16.1857H25.3221C25.0166 16.1857 24.7666 15.9415 24.7666 15.6431V14.558C24.7666 14.2596 25.0166 14.0155 25.3221 14.0155H35.3221C35.6277 14.0155 35.8777 14.2596 35.8777 14.558V15.6431ZM35.8777 11.3027C35.8777 11.6011 35.6277 11.8453 35.3221 11.8453H25.3221C25.0166 11.8453 24.7666 11.6011 24.7666 11.3027V10.2176C24.7666 9.91923 25.0166 9.67509 25.3221 9.67509H35.3221C35.6277 9.67509 35.8777 9.91923 35.8777 10.2176V11.3027Z" fill="#F1EDED"/>
</svg>
