<svg width="41" height="49" viewBox="0 0 41 49" fill="none" xmlns="http://www.w3.org/2000/svg">
<path d="M20.7858 24.4748C27.0983 24.4748 32.2143 19.1621 32.2143 12.607C32.2143 6.05198 27.0983 0.739319 20.7858 0.739319C14.4733 0.739319 9.35719 6.05198 9.35719 12.607C9.35719 19.1621 14.4733 24.4748 20.7858 24.4748ZM28.7858 27.4417H27.2947C25.3126 28.3874 23.1072 28.9251 20.7858 28.9251C18.4643 28.9251 16.2679 28.3874 14.2768 27.4417H12.7858C6.16077 27.4417 0.785767 33.0232 0.785767 39.9028V43.7598C0.785767 46.2168 2.70541 48.2102 5.07148 48.2102H36.5001C38.8661 48.2102 40.7858 46.2168 40.7858 43.7598V39.9028C40.7858 33.0232 35.4108 27.4417 28.7858 27.4417Z" fill="#F1EDED"/>
<path d="M20.7858 24.4748C27.0983 24.4748 32.2143 19.1621 32.2143 12.607C32.2143 6.05198 27.0983 0.739319 20.7858 0.739319C14.4733 0.739319 9.35719 6.05198 9.35719 12.607C9.35719 19.1621 14.4733 24.4748 20.7858 24.4748ZM28.7858 27.4417H27.2947C25.3126 28.3874 23.1072 28.9251 20.7858 28.9251C18.4643 28.9251 16.2679 28.3874 14.2768 27.4417H12.7858C6.16077 27.4417 0.785767 33.0232 0.785767 39.9028V43.7598C0.785767 46.2168 2.70541 48.2102 5.07148 48.2102H36.5001C38.8661 48.2102 40.7858 46.2168 40.7858 43.7598V39.9028C40.7858 33.0232 35.4108 27.4417 28.7858 27.4417Z" fill="url(#paint0_linear)"/>
<defs>
<linearGradient id="paint0_linear" x1="20.7858" y1="0.739319" x2="20.7858" y2="48.2102" gradientUnits="userSpaceOnUse">
<stop stop-color="white"/>
<stop offset="1" stop-color="white" stop-opacity="0"/>
</linearGradient>
</defs>
</svg>
