<svg width="34" height="52" viewBox="0 0 34 52" fill="none" xmlns="http://www.w3.org/2000/svg">
<path d="M16.4088 25.9892C15.9791 24.414 15.9877 21.372 16.2369 21.372C16.9588 21.372 16.89 25.0047 16.4088 25.9892ZM16.2627 30.6359C15.601 32.6246 14.776 34.8987 13.822 36.8086C15.3947 36.1195 17.1736 35.1153 19.2275 34.6526C18.1361 33.7075 17.0877 32.3489 16.2627 30.6359ZM8.17595 42.9223C8.17595 43.001 9.31033 42.3906 11.1752 38.9646C10.5994 39.5849 8.67439 41.3766 8.17595 42.9223ZM22.0892 16.5283H33.7767V48.8193C33.7767 50.1287 32.8572 51.1821 31.7142 51.1821H2.83923C1.69626 51.1821 0.776733 50.1287 0.776733 48.8193V3.13937C0.776733 1.83001 1.69626 0.776611 2.83923 0.776611H20.0267V14.1656C20.0267 15.4651 20.9549 16.5283 22.0892 16.5283ZM21.4017 33.4417C19.683 32.2406 18.54 30.5867 17.7322 28.1452C18.1189 26.3239 18.7291 23.5575 18.265 21.8248C17.8611 18.9305 14.6213 19.216 14.1572 21.1554C13.7275 22.957 14.1228 25.4969 14.8533 28.7359C13.8564 31.4531 12.3869 35.0956 11.347 37.1827C11.3385 37.1827 11.3385 37.1926 11.3299 37.1926C9.00095 38.561 5.00486 41.5735 6.64626 43.8871C7.12751 44.5663 8.02127 44.8715 8.49392 44.8715C10.0322 44.8715 11.5619 43.0995 13.7447 38.7874C15.9619 37.9506 18.3939 36.9071 20.5338 36.5034C22.3986 37.6651 24.5814 38.4232 26.0338 38.4232C28.5431 38.4232 28.715 35.2728 27.7267 34.1505C26.5322 32.8116 23.0603 33.1956 21.4017 33.4417ZM33.1752 11.1137L24.7533 1.46575C24.3666 1.02273 23.8424 0.776611 23.2924 0.776611H22.7767V13.378H33.7767V12.7774C33.7767 12.1572 33.5619 11.5567 33.1752 11.1137ZM26.8072 36.2475C27.1595 35.9817 26.5924 35.0759 23.1291 35.3614C26.3174 36.9169 26.8072 36.2475 26.8072 36.2475Z" fill="#F1EDED"/>
</svg>
