<svg width="34" height="51" viewBox="0 0 34 51" fill="none" xmlns="http://www.w3.org/2000/svg">
<path d="M29.0605 6.56753H22.1855C22.1855 3.09231 19.7191 0.266846 16.6855 0.266846C13.652 0.266846 11.1855 3.09231 11.1855 6.56753H4.31055C2.0332 6.56753 0.185547 8.68416 0.185547 11.293V45.9468C0.185547 48.5557 2.0332 50.6723 4.31055 50.6723H29.0605C31.3379 50.6723 33.1855 48.5557 33.1855 45.9468V11.293C33.1855 8.68416 31.3379 6.56753 29.0605 6.56753ZM8.43555 42.0089C7.29258 42.0089 6.37305 40.9555 6.37305 39.6461C6.37305 38.3367 7.29258 37.2834 8.43555 37.2834C9.57852 37.2834 10.498 38.3367 10.498 39.6461C10.498 40.9555 9.57852 42.0089 8.43555 42.0089ZM8.43555 32.5578C7.29258 32.5578 6.37305 31.5044 6.37305 30.1951C6.37305 28.8857 7.29258 27.8323 8.43555 27.8323C9.57852 27.8323 10.498 28.8857 10.498 30.1951C10.498 31.5044 9.57852 32.5578 8.43555 32.5578ZM8.43555 23.1068C7.29258 23.1068 6.37305 22.0534 6.37305 20.7441C6.37305 19.4347 7.29258 18.3813 8.43555 18.3813C9.57852 18.3813 10.498 19.4347 10.498 20.7441C10.498 22.0534 9.57852 23.1068 8.43555 23.1068ZM16.6855 4.20477C17.8285 4.20477 18.748 5.25817 18.748 6.56753C18.748 7.87689 17.8285 8.93028 16.6855 8.93028C15.5426 8.93028 14.623 7.87689 14.623 6.56753C14.623 5.25817 15.5426 4.20477 16.6855 4.20477ZM27.6855 40.4337C27.6855 40.8669 27.3762 41.2213 26.998 41.2213H14.623C14.2449 41.2213 13.9355 40.8669 13.9355 40.4337V38.8585C13.9355 38.4254 14.2449 38.0709 14.623 38.0709H26.998C27.3762 38.0709 27.6855 38.4254 27.6855 38.8585V40.4337ZM27.6855 30.9827C27.6855 31.4158 27.3762 31.7703 26.998 31.7703H14.623C14.2449 31.7703 13.9355 31.4158 13.9355 30.9827V29.4075C13.9355 28.9743 14.2449 28.6199 14.623 28.6199H26.998C27.3762 28.6199 27.6855 28.9743 27.6855 29.4075V30.9827ZM27.6855 21.5316C27.6855 21.9648 27.3762 22.3192 26.998 22.3192H14.623C14.2449 22.3192 13.9355 21.9648 13.9355 21.5316V19.9565C13.9355 19.5233 14.2449 19.1689 14.623 19.1689H26.998C27.3762 19.1689 27.6855 19.5233 27.6855 19.9565V21.5316Z" fill="#F1EDED"/>
</svg>
