<svg width="33" height="50" viewBox="0 0 33 50" fill="none" xmlns="http://www.w3.org/2000/svg">
<path id="icon vendas" d="M32.3984 10.2228L23.9852 0.681517C23.5984 0.243399 23.0742 0 22.5242 0H22V12.462H33V11.8681C33 11.2548 32.7852 10.6609 32.3984 10.2228ZM19.25 13.2409V0H2.0625C0.919531 0 0 1.04175 0 2.33663V47.5115C0 48.8064 0.919531 49.8481 2.0625 49.8481H30.9375C32.0805 49.8481 33 48.8064 33 47.5115V15.5775H21.3125C20.1781 15.5775 19.25 14.5261 19.25 13.2409ZM5.5 7.00989C5.5 6.57956 5.80766 6.23101 6.1875 6.23101H13.0625C13.4423 6.23101 13.75 6.57956 13.75 7.00989V8.56764C13.75 8.99797 13.4423 9.34652 13.0625 9.34652H6.1875C5.80766 9.34652 5.5 8.99797 5.5 8.56764V7.00989ZM5.5 14.7987V13.2409C5.5 12.8106 5.80766 12.462 6.1875 12.462H13.0625C13.4423 12.462 13.75 12.8106 13.75 13.2409V14.7987C13.75 15.229 13.4423 15.5775 13.0625 15.5775H6.1875C5.80766 15.5775 5.5 15.229 5.5 14.7987ZM17.875 40.4899V42.8382C17.875 43.2686 17.5673 43.6171 17.1875 43.6171H15.8125C15.4327 43.6171 15.125 43.2686 15.125 42.8382V40.4734C14.1548 40.4169 13.2112 40.0333 12.4291 39.3683C12.094 39.0831 12.0768 38.5145 12.3802 38.1864L13.3899 37.095C13.628 36.838 13.982 36.8263 14.2605 37.0239C14.593 37.2595 14.9703 37.3861 15.3622 37.3861H17.7779C18.3365 37.3861 18.792 36.8097 18.792 36.1019C18.792 35.5226 18.4817 35.0125 18.0383 34.8625L14.1711 33.5482C12.5735 33.0049 11.4572 31.268 11.4572 29.3237C11.4572 26.9365 13.0943 24.9971 15.1241 24.9357V22.5874C15.1241 22.1571 15.4318 21.8085 15.8116 21.8085H17.1866C17.5665 21.8085 17.8741 22.1571 17.8741 22.5874V24.9523C18.8444 25.0088 19.788 25.3914 20.57 26.0573C20.9052 26.3426 20.9223 26.9112 20.619 27.2393L19.6092 28.3307C19.3712 28.5877 19.0171 28.5994 18.7387 28.4017C18.4061 28.1652 18.0288 28.0396 17.637 28.0396H15.2212C14.6627 28.0396 14.2072 28.6159 14.2072 29.3237C14.2072 29.903 14.5174 30.4132 14.9609 30.5631L18.828 31.8775C20.4256 32.4207 21.542 34.1576 21.542 36.1019C21.542 38.4901 19.9048 40.4286 17.875 40.4899Z" fill="#FFFCFC"/>
</svg>
