<svg width="523" height="400" viewBox="0 0 523 400" fill="none" xmlns="http://www.w3.org/2000/svg">
<g clip-path="url(#clip0)">
<path d="M522.963 0H22.2864V320.582H522.963V0Z" fill="url(#paint0_linear)"/>
<path d="M517.33 37.876H26.6672V310.886H517.33V37.876Z" fill="white"/>
<path d="M517.33 6.66602H26.6672V37.8758H517.33V6.66602Z" fill="#548EFF"/>
<path d="M511.698 57.5713H33.5515V295.735H511.698V57.5713Z" fill="url(#paint1_linear)"/>
<path opacity="0.5" d="M97.0749 61.8135H39.4971V106.356H97.0749V61.8135Z" fill="#548EFF"/>
<path d="M155.279 61.8135H97.7008V106.356H155.279V61.8135Z" fill="white"/>
<path opacity="0.2" d="M213.482 61.8135H155.904V106.356H213.482V61.8135Z" fill="#548EFF"/>
<path d="M271.686 61.8135H214.108V106.356H271.686V61.8135Z" fill="white"/>
<path d="M329.89 61.8135H272.312V106.356H329.89V61.8135Z" fill="white"/>
<path opacity="0.5" d="M388.093 61.8135H330.515V106.356H388.093V61.8135Z" fill="#548EFF"/>
<path d="M446.297 61.8135H388.719V106.356H446.297V61.8135Z" fill="white"/>
<path opacity="0.2" d="M504.501 61.8135H446.923V106.356H504.501V61.8135Z" fill="#548EFF"/>
<path opacity="0.2" d="M97.0749 107.265H39.4971V151.807H97.0749V107.265Z" fill="#548EFF"/>
<path opacity="0.2" d="M155.279 107.265H97.7008V151.807H155.279V107.265Z" fill="#548EFF"/>
<path d="M213.482 107.265H155.904V151.807H213.482V107.265Z" fill="white"/>
<path opacity="0.5" d="M271.686 107.265H214.108V151.807H271.686V107.265Z" fill="#548EFF"/>
<path d="M329.89 107.265H272.312V151.807H329.89V107.265Z" fill="white"/>
<path opacity="0.2" d="M388.093 107.265H330.515V151.807H388.093V107.265Z" fill="#548EFF"/>
<path opacity="0.5" d="M446.297 107.265H388.719V151.807H446.297V107.265Z" fill="#548EFF"/>
<path d="M504.501 107.265H446.923V151.807H504.501V107.265Z" fill="white"/>
<path d="M97.0749 152.11H39.4971V196.652H97.0749V152.11Z" fill="white"/>
<path d="M155.279 152.11H97.7008V196.652H155.279V152.11Z" fill="white"/>
<path opacity="0.2" d="M213.482 152.11H155.904V196.652H213.482V152.11Z" fill="#548EFF"/>
<path d="M271.686 152.11H214.108V196.652H271.686V152.11Z" fill="white"/>
<path opacity="0.2" d="M329.89 152.11H272.312V196.652H329.89V152.11Z" fill="#548EFF"/>
<path d="M388.093 152.11H330.515V196.652H388.093V152.11Z" fill="white"/>
<path d="M446.297 152.11H388.719V196.652H446.297V152.11Z" fill="white"/>
<path opacity="0.2" d="M504.501 152.11H446.923V196.652H504.501V152.11Z" fill="#548EFF"/>
<path d="M97.0749 196.955H39.4971V241.497H97.0749V196.955Z" fill="white"/>
<path opacity="0.5" d="M155.279 196.955H97.7008V241.497H155.279V196.955Z" fill="#548EFF"/>
<path opacity="0.5" d="M213.482 196.955H155.904V241.497H213.482V196.955Z" fill="#548EFF"/>
<path d="M271.686 196.955H214.108V241.497H271.686V196.955Z" fill="white"/>
<path d="M329.89 196.955H272.312V241.497H329.89V196.955Z" fill="white"/>
<path opacity="0.5" d="M388.093 196.955H330.515V241.497H388.093V196.955Z" fill="#548EFF"/>
<path d="M446.297 196.955H388.719V241.497H446.297V196.955Z" fill="white"/>
<path opacity="0.5" d="M504.501 196.955H446.923V241.497H504.501V196.955Z" fill="#548EFF"/>
<path opacity="0.5" d="M97.0749 242.406H39.4971V286.948H97.0749V242.406Z" fill="#548EFF"/>
<path opacity="0.2" d="M155.279 242.406H97.7008V286.948H155.279V242.406Z" fill="#548EFF"/>
<path d="M213.482 242.406H155.904V286.948H213.482V242.406Z" fill="white"/>
<path opacity="0.5" d="M271.686 242.406H214.108V286.948H271.686V242.406Z" fill="#548EFF"/>
<path opacity="0.2" d="M329.89 242.406H272.312V286.948H329.89V242.406Z" fill="#548EFF"/>
<path d="M388.093 242.406H330.515V286.948H388.093V242.406Z" fill="white"/>
<path opacity="0.2" d="M446.297 242.406H388.719V286.948H446.297V242.406Z" fill="#548EFF"/>
<path d="M504.501 242.406H446.923V286.948H504.501V242.406Z" fill="white"/>
<path d="M61.7146 156.352H44.1909V173.32H61.7146V156.352Z" fill="#69F0AE"/>
<path d="M235.7 66.6616H218.176V83.63H235.7V66.6616Z" fill="#69F0AE"/>
<path d="M233.822 156.352H216.299V173.32H233.822V156.352Z" fill="#69F0AE"/>
<path d="M293.278 199.379H275.754V216.347H293.278V199.379Z" fill="#69F0AE"/>
<path d="M409.059 156.352H391.535V173.32H409.059V156.352Z" fill="#69F0AE"/>
<path d="M107.364 400C166.659 400 214.728 353.455 214.728 296.038C214.728 238.621 166.659 192.076 107.364 192.076C48.0684 192.076 0 238.621 0 296.038C0 353.455 48.0684 400 107.364 400Z" fill="url(#paint2_linear)"/>
<path d="M107.364 397.194C165.059 397.194 211.83 351.905 211.83 296.038C211.83 240.171 165.059 194.882 107.364 194.882C49.6688 194.882 2.89771 240.171 2.89771 296.038C2.89771 351.905 49.6688 397.194 107.364 397.194Z" fill="#548EFF"/>
<path d="M107.364 378.226C154.24 378.226 192.241 341.429 192.241 296.038C192.241 250.647 154.24 213.851 107.364 213.851C60.4874 213.851 22.4866 250.647 22.4866 296.038C22.4866 341.429 60.4874 378.226 107.364 378.226Z" fill="white"/>
<path d="M107.364 300.953C110.167 300.953 112.439 298.753 112.439 296.038C112.439 293.324 110.167 291.124 107.364 291.124C104.561 291.124 102.288 293.324 102.288 296.038C102.288 298.753 104.561 300.953 107.364 300.953Z" fill="url(#paint3_linear)"/>
<path d="M109.279 296.644L106.15 295.626L134.313 231.801L137.442 233.225L109.279 296.644Z" fill="url(#paint4_linear)"/>
<path d="M134.647 232.387L107.081 295.608L109.088 296.429L136.654 233.208L134.647 232.387Z" fill="#2196F3"/>
<path d="M124.925 329.975L106.776 297.25L109.279 296.038L128.054 328.157L124.925 329.975Z" fill="url(#paint5_linear)"/>
<path d="M109.036 296.257L107.123 297.264L125.258 329.58L127.172 328.573L109.036 296.257Z" fill="#2196F3"/>
<path d="M186.439 300.256C187.642 300.256 188.617 299.312 188.617 298.147C188.617 296.982 187.642 296.038 186.439 296.038C185.237 296.038 184.261 296.982 184.261 298.147C184.261 299.312 185.237 300.256 186.439 300.256Z" fill="#548EFF"/>
<path d="M41.7006 259.542C42.4817 258.232 42.0181 256.556 40.6651 255.8C39.3121 255.044 37.582 255.492 36.8009 256.803C36.0197 258.113 36.4833 259.788 37.8363 260.544C39.1893 261.301 40.9194 260.852 41.7006 259.542Z" fill="url(#paint6_linear)"/>
<path d="M41.389 338.515C42.742 337.759 43.2056 336.083 42.4244 334.773C41.6433 333.463 39.9132 333.014 38.5602 333.771C37.2072 334.527 36.7436 336.202 37.5248 337.512C38.3059 338.822 40.036 339.271 41.389 338.515Z" fill="url(#paint7_linear)"/>
<path d="M28.2944 300.886C29.8567 300.886 31.1232 299.66 31.1232 298.147C31.1232 296.634 29.8567 295.408 28.2944 295.408C26.7321 295.408 25.4656 296.634 25.4656 298.147C25.4656 299.66 26.7321 300.886 28.2944 300.886Z" fill="url(#paint8_linear)"/>
<path d="M69.5333 232.447C70.8863 231.691 71.3499 230.015 70.5687 228.705C69.7876 227.395 68.0575 226.946 66.7045 227.703C65.3515 228.459 64.8879 230.134 65.6691 231.444C66.4502 232.755 68.1803 233.203 69.5333 232.447Z" fill="url(#paint9_linear)"/>
<path d="M108.708 222.617C110.061 221.86 110.524 220.185 109.743 218.875C108.962 217.565 107.232 217.116 105.879 217.872C104.526 218.629 104.062 220.304 104.844 221.614C105.625 222.924 107.355 223.373 108.708 222.617Z" fill="url(#paint10_linear)"/>
<path d="M147.882 232.45C149.235 231.694 149.698 230.018 148.917 228.708C148.136 227.398 146.406 226.949 145.053 227.706C143.7 228.462 143.236 230.137 144.017 231.447C144.798 232.758 146.529 233.206 147.882 232.45Z" fill="url(#paint11_linear)"/>
<path d="M176.898 260.55C178.251 259.793 178.715 258.118 177.934 256.808C177.153 255.498 175.422 255.049 174.069 255.805C172.716 256.562 172.253 258.237 173.034 259.547C173.815 260.857 175.545 261.306 176.898 260.55Z" fill="url(#paint12_linear)"/>
<path d="M176.176 338.521C177.529 337.765 177.992 336.09 177.211 334.779C176.43 333.469 174.7 333.02 173.347 333.777C171.994 334.533 171.53 336.209 172.311 337.519C173.093 338.829 174.823 339.278 176.176 338.521Z" fill="url(#paint13_linear)"/>
<path d="M146.43 365.915C147.783 365.158 148.247 363.483 147.466 362.173C146.684 360.863 144.954 360.414 143.601 361.17C142.248 361.927 141.785 363.602 142.566 364.912C143.347 366.222 145.077 366.671 146.43 365.915Z" fill="url(#paint14_linear)"/>
<path d="M108.705 374.348C110.058 373.592 110.521 371.917 109.74 370.607C108.959 369.297 107.229 368.848 105.876 369.604C104.523 370.36 104.059 372.036 104.841 373.346C105.622 374.656 107.352 375.105 108.705 374.348Z" fill="url(#paint15_linear)"/>
<path d="M70.9848 365.918C72.3378 365.161 72.8014 363.486 72.0203 362.176C71.2391 360.866 69.509 360.417 68.156 361.173C66.803 361.93 66.3394 363.605 67.1206 364.915C67.9018 366.225 69.6318 366.674 70.9848 365.918Z" fill="url(#paint16_linear)"/>
<path d="M107.364 222.28C108.567 222.28 109.542 221.336 109.542 220.171C109.542 219.006 108.567 218.062 107.364 218.062C106.161 218.062 105.186 219.006 105.186 220.171C105.186 221.336 106.161 222.28 107.364 222.28Z" fill="#69F0AE"/>
<path d="M148.425 231.388C149.026 230.379 148.669 229.09 147.627 228.507C146.586 227.925 145.254 228.27 144.652 229.279C144.051 230.288 144.408 231.578 145.45 232.16C146.491 232.742 147.823 232.397 148.425 231.388Z" fill="#69F0AE"/>
<path d="M176.302 259.932C177.344 259.349 177.701 258.06 177.099 257.051C176.498 256.042 175.166 255.697 174.124 256.279C173.083 256.861 172.726 258.151 173.327 259.16C173.929 260.169 175.261 260.514 176.302 259.932Z" fill="#69F0AE"/>
<path d="M176.646 337.199C177.247 336.19 176.89 334.9 175.849 334.318C174.807 333.735 173.475 334.081 172.874 335.09C172.272 336.098 172.629 337.388 173.671 337.97C174.712 338.553 176.045 338.207 176.646 337.199Z" fill="#69F0AE"/>
<path d="M146.105 365.225C147.146 364.642 147.503 363.353 146.902 362.344C146.301 361.335 144.969 360.99 143.927 361.572C142.885 362.154 142.528 363.444 143.13 364.453C143.731 365.462 145.063 365.807 146.105 365.225Z" fill="#69F0AE"/>
<path d="M69.277 232.166C70.3187 231.584 70.6756 230.294 70.0742 229.285C69.4727 228.277 68.1407 227.931 67.099 228.513C66.0573 229.096 65.7004 230.386 66.3019 231.394C66.9033 232.403 68.2353 232.749 69.277 232.166Z" fill="#69F0AE"/>
<path d="M41.4025 259.161C42.0039 258.152 41.647 256.862 40.6053 256.28C39.5636 255.698 38.2317 256.043 37.6302 257.052C37.0288 258.061 37.3857 259.351 38.4274 259.933C39.4691 260.515 40.8011 260.17 41.4025 259.161Z" fill="#69F0AE"/>
<path d="M187.785 300.591C189.138 299.835 189.602 298.159 188.82 296.849C188.039 295.539 186.309 295.09 184.956 295.847C183.603 296.603 183.14 298.278 183.921 299.589C184.702 300.899 186.432 301.348 187.785 300.591Z" fill="#69F0AE"/>
<path d="M41.0636 337.969C42.1053 337.387 42.4622 336.097 41.8608 335.089C41.2594 334.08 39.9274 333.734 38.8857 334.317C37.844 334.899 37.4871 336.189 38.0885 337.197C38.6899 338.206 40.0219 338.552 41.0636 337.969Z" fill="#69F0AE"/>
<path d="M71.5978 364.455C72.1992 363.447 71.8423 362.157 70.8007 361.575C69.759 360.992 68.427 361.338 67.8255 362.346C67.2241 363.355 67.581 364.645 68.6227 365.227C69.6644 365.81 70.9964 365.464 71.5978 364.455Z" fill="#69F0AE"/>
<path d="M28.2944 300.256C29.4972 300.256 30.4723 299.312 30.4723 298.147C30.4723 296.982 29.4972 296.038 28.2944 296.038C27.0916 296.038 26.1165 296.982 26.1165 298.147C26.1165 299.312 27.0916 300.256 28.2944 300.256Z" fill="#69F0AE"/>
<path d="M107.364 374.008C108.567 374.008 109.542 373.064 109.542 371.899C109.542 370.734 108.567 369.79 107.364 369.79C106.161 369.79 105.186 370.734 105.186 371.899C105.186 373.064 106.161 374.008 107.364 374.008Z" fill="#69F0AE"/>
<path opacity="0.2" d="M26.8426 303.765C26.8482 285.654 33.0306 268.052 44.4293 253.693C55.828 239.335 71.8049 229.023 89.878 224.361C107.951 219.698 127.108 220.946 144.374 227.91C161.639 234.873 176.046 247.164 185.357 262.871C180.788 252.595 174.101 243.33 165.705 235.644C157.309 227.957 147.381 222.012 136.53 218.17C125.678 214.329 114.13 212.674 102.594 213.305C91.0586 213.937 79.7773 216.842 69.4416 221.843C59.1058 226.843 49.9331 233.835 42.4853 242.388C35.0375 250.942 29.4713 260.878 26.1278 271.587C22.7842 282.296 21.7335 293.554 23.0402 304.67C24.3469 315.787 27.9834 326.528 33.7269 336.235C29.1708 325.979 26.828 314.93 26.8426 303.765Z" fill="#548EFF"/>
<path d="M107.364 299.553C109.369 299.553 110.994 297.98 110.994 296.038C110.994 294.097 109.369 292.523 107.364 292.523C105.359 292.523 103.734 294.097 103.734 296.038C103.734 297.98 105.359 299.553 107.364 299.553Z" fill="#69F0AE"/>
</g>
<defs>
<linearGradient id="paint0_linear" x1="272.625" y1="320.582" x2="272.625" y2="0" gradientUnits="userSpaceOnUse">
<stop stop-color="#808080" stop-opacity="0.25"/>
<stop offset="0.54" stop-color="#808080" stop-opacity="0.12"/>
<stop offset="1" stop-color="#808080" stop-opacity="0.1"/>
</linearGradient>
<linearGradient id="paint1_linear" x1="208319" y1="116282" x2="208319" y2="22683.1" gradientUnits="userSpaceOnUse">
<stop stop-color="#808080" stop-opacity="0.25"/>
<stop offset="0.54" stop-color="#808080" stop-opacity="0.12"/>
<stop offset="1" stop-color="#808080" stop-opacity="0.1"/>
</linearGradient>
<linearGradient id="paint2_linear" x1="36836.5" y1="137432" x2="36836.5" y2="66093.5" gradientUnits="userSpaceOnUse">
<stop stop-color="#808080" stop-opacity="0.25"/>
<stop offset="0.54" stop-color="#808080" stop-opacity="0.12"/>
<stop offset="1" stop-color="#808080" stop-opacity="0.1"/>
</linearGradient>
<linearGradient id="paint3_linear" x1="1843.73" y1="5172.55" x2="1843.73" y2="5013.02" gradientUnits="userSpaceOnUse">
<stop stop-color="#808080" stop-opacity="0.25"/>
<stop offset="0.54" stop-color="#808080" stop-opacity="0.12"/>
<stop offset="1" stop-color="#808080" stop-opacity="0.1"/>
</linearGradient>
<linearGradient id="paint4_linear" x1="6195.94" y1="31972.7" x2="6195.94" y2="25034.4" gradientUnits="userSpaceOnUse">
<stop stop-color="#808080" stop-opacity="0.25"/>
<stop offset="0.54" stop-color="#808080" stop-opacity="0.12"/>
<stop offset="1" stop-color="#808080" stop-opacity="0.1"/>
</linearGradient>
<linearGradient id="paint5_linear" x1="4098.88" y1="18774.6" x2="4098.88" y2="16874.2" gradientUnits="userSpaceOnUse">
<stop stop-color="#808080" stop-opacity="0.25"/>
<stop offset="0.54" stop-color="#808080" stop-opacity="0.12"/>
<stop offset="1" stop-color="#808080" stop-opacity="0.1"/>
</linearGradient>
<linearGradient id="paint6_linear" x1="-2293.59" y1="4597.29" x2="-2250.07" y2="4571.34" gradientUnits="userSpaceOnUse">
<stop stop-color="#808080" stop-opacity="0.25"/>
<stop offset="0.54" stop-color="#808080" stop-opacity="0.12"/>
<stop offset="1" stop-color="#808080" stop-opacity="0.1"/>
</linearGradient>
<linearGradient id="paint7_linear" x1="1429.32" y1="4054.09" x2="1429.32" y2="4004.62" gradientUnits="userSpaceOnUse">
<stop stop-color="#808080" stop-opacity="0.25"/>
<stop offset="0.54" stop-color="#808080" stop-opacity="0.12"/>
<stop offset="1" stop-color="#808080" stop-opacity="0.1"/>
</linearGradient>
<linearGradient id="paint8_linear" x1="-442.757" y1="4688.86" x2="-418.4" y2="4645.3" gradientUnits="userSpaceOnUse">
<stop stop-color="#808080" stop-opacity="0.25"/>
<stop offset="0.54" stop-color="#808080" stop-opacity="0.12"/>
<stop offset="1" stop-color="#808080" stop-opacity="0.1"/>
</linearGradient>
<linearGradient id="paint9_linear" x1="-3864.85" y1="3539.7" x2="-3813.71" y2="3539.7" gradientUnits="userSpaceOnUse">
<stop stop-color="#808080" stop-opacity="0.25"/>
<stop offset="0.54" stop-color="#808080" stop-opacity="0.12"/>
<stop offset="1" stop-color="#808080" stop-opacity="0.1"/>
</linearGradient>
<linearGradient id="paint10_linear" x1="-3500.6" y1="3488.79" x2="-3449.45" y2="3488.79" gradientUnits="userSpaceOnUse">
<stop stop-color="#808080" stop-opacity="0.25"/>
<stop offset="0.54" stop-color="#808080" stop-opacity="0.12"/>
<stop offset="1" stop-color="#808080" stop-opacity="0.1"/>
</linearGradient>
<linearGradient id="paint11_linear" x1="-3156.56" y1="3615.57" x2="-3105.48" y2="3615.57" gradientUnits="userSpaceOnUse">
<stop stop-color="#808080" stop-opacity="0.25"/>
<stop offset="0.54" stop-color="#808080" stop-opacity="0.12"/>
<stop offset="1" stop-color="#808080" stop-opacity="0.1"/>
</linearGradient>
<linearGradient id="paint12_linear" x1="-2923.29" y1="3897.71" x2="-2872.15" y2="3897.71" gradientUnits="userSpaceOnUse">
<stop stop-color="#808080" stop-opacity="0.25"/>
<stop offset="0.54" stop-color="#808080" stop-opacity="0.12"/>
<stop offset="1" stop-color="#808080" stop-opacity="0.1"/>
</linearGradient>
<linearGradient id="paint13_linear" x1="-3010.37" y1="4601.82" x2="-2959.23" y2="4601.82" gradientUnits="userSpaceOnUse">
<stop stop-color="#808080" stop-opacity="0.25"/>
<stop offset="0.54" stop-color="#808080" stop-opacity="0.12"/>
<stop offset="1" stop-color="#808080" stop-opacity="0.1"/>
</linearGradient>
<linearGradient id="paint14_linear" x1="-3307.5" y1="4820.73" x2="-3256.42" y2="4820.73" gradientUnits="userSpaceOnUse">
<stop stop-color="#808080" stop-opacity="0.25"/>
<stop offset="0.54" stop-color="#808080" stop-opacity="0.12"/>
<stop offset="1" stop-color="#808080" stop-opacity="0.1"/>
</linearGradient>
<linearGradient id="paint15_linear" x1="-3657.28" y1="4860.36" x2="-3606.14" y2="4860.36" gradientUnits="userSpaceOnUse">
<stop stop-color="#808080" stop-opacity="0.25"/>
<stop offset="0.54" stop-color="#808080" stop-opacity="0.12"/>
<stop offset="1" stop-color="#808080" stop-opacity="0.1"/>
</linearGradient>
<linearGradient id="paint16_linear" x1="-3989.56" y1="4747.64" x2="-3938.47" y2="4747.64" gradientUnits="userSpaceOnUse">
<stop stop-color="#808080" stop-opacity="0.25"/>
<stop offset="0.54" stop-color="#808080" stop-opacity="0.12"/>
<stop offset="1" stop-color="#808080" stop-opacity="0.1"/>
</linearGradient>
<clipPath id="clip0">
<rect width="522.963" height="400" fill="white"/>
</clipPath>
</defs>
</svg>
