<svg width="358" height="268" viewBox="0 0 358 268" fill="none" xmlns="http://www.w3.org/2000/svg">
<g clip-path="url(#clip0)" filter="url(#filter0_d)">
<path d="M257.274 0.476333L11.395 76.878C5.85125 78.6006 2.75361 84.4911 4.47621 90.0349L48.7099 232.39C50.4325 237.934 56.323 241.031 61.8667 239.309L307.746 162.907C313.29 161.184 316.388 155.294 314.665 149.75L270.431 7.3951C268.709 1.85138 262.818 -1.24627 257.274 0.476333Z" fill="url(#paint0_linear)"/>
<path d="M256.001 2.72444L15.548 77.4401C10.0043 79.1626 6.90662 85.0532 8.62921 90.5969L51.0766 227.203C52.7992 232.747 58.6897 235.844 64.2334 234.122L304.687 159.406C310.23 157.683 313.328 151.793 311.605 146.249L269.158 9.64321C267.435 4.09949 261.545 1.00184 256.001 2.72444Z" fill="white"/>
<path d="M272.455 20.2534L11.9259 101.207L18.908 123.677L279.437 42.7232L272.455 20.2534Z" fill="#548EFF"/>
<path d="M131.981 181.106L65.7858 201.675L68.805 211.392L135 190.823L131.981 181.106Z" fill="#BDBDBD"/>
<path d="M175.469 149.613L60.6908 185.278L63.71 194.995L178.488 159.33L175.469 149.613Z" fill="#E0E0E0"/>
<path d="M343.489 89.3784H84.4425C78.6374 89.3784 73.9313 94.0845 73.9313 99.8897V249.126C73.9313 254.931 78.6374 259.637 84.4425 259.637H343.489C349.294 259.637 354 254.931 354 249.126V99.8897C354 94.0845 349.294 89.3784 343.489 89.3784Z" fill="url(#paint1_linear)"/>
<path d="M339.416 91.1143H87.6223C81.8171 91.1143 77.1111 95.8203 77.1111 101.625V244.674C77.1111 250.48 81.8171 255.186 87.6223 255.186H339.416C345.221 255.186 349.927 250.48 349.927 244.674V101.625C349.927 95.8203 345.221 91.1143 339.416 91.1143Z" fill="white"/>
<path d="M149.938 170.764H141.989V193.339H149.938V170.764Z" fill="#E0E0E0"/>
<path d="M160.113 170.764H152.164V193.339H160.113V170.764Z" fill="#E0E0E0"/>
<path d="M170.288 170.764H162.339V193.339H170.288V170.764Z" fill="#E0E0E0"/>
<path d="M188.094 170.764H180.145V193.339H188.094V170.764Z" fill="#E0E0E0"/>
<path d="M198.269 170.764H190.32V193.339H198.269V170.764Z" fill="#E0E0E0"/>
<path d="M208.444 170.764H200.495V193.339H208.444V170.764Z" fill="#E0E0E0"/>
<path d="M226.25 170.764H218.301V193.339H226.25V170.764Z" fill="#E0E0E0"/>
<path d="M236.425 170.764H228.476V193.339H236.425V170.764Z" fill="#E0E0E0"/>
<path d="M246.6 170.764H238.651V193.339H246.6V170.764Z" fill="#E0E0E0"/>
<path d="M264.406 170.764H256.457V193.339H264.406V170.764Z" fill="#E0E0E0"/>
<path d="M274.581 170.764H266.632V193.339H274.581V170.764Z" fill="#E0E0E0"/>
<path d="M284.756 170.764H276.807V193.339H284.756V170.764Z" fill="#E0E0E0"/>
<path d="M141.864 134.099H94.4682V160.09H141.864V134.099Z" fill="#548EFF"/>
<path opacity="0.1" d="M307.751 219.335H278.701V248.385H307.751V219.335Z" fill="#548EFF"/>
<path opacity="0.1" d="M322.275 219.335H293.226V248.385H322.275V219.335Z" fill="#548EFF"/>
</g>
<defs>
<filter id="filter0_d" x="0" y="0" width="358" height="267.637" filterUnits="userSpaceOnUse" color-interpolation-filters="sRGB">
<feFlood flood-opacity="0" result="BackgroundImageFix"/>
<feColorMatrix in="SourceAlpha" type="matrix" values="0 0 0 0 0 0 0 0 0 0 0 0 0 0 0 0 0 0 127 0"/>
<feOffset dy="4"/>
<feGaussianBlur stdDeviation="2"/>
<feColorMatrix type="matrix" values="0 0 0 0 0 0 0 0 0 0 0 0 0 0 0 0 0 0 0.25 0"/>
<feBlend mode="normal" in2="BackgroundImageFix" result="effect1_dropShadow"/>
<feBlend mode="normal" in="SourceGraphic" in2="effect1_dropShadow" result="shape"/>
</filter>
<linearGradient id="paint0_linear" x1="160.094" y1="240.23" x2="161.152" y2="-0.43663" gradientUnits="userSpaceOnUse">
<stop stop-color="#808080" stop-opacity="0.25"/>
<stop offset="0.53514" stop-color="#808080" stop-opacity="0.12"/>
<stop offset="1" stop-color="#808080" stop-opacity="0.1"/>
</linearGradient>
<linearGradient id="paint1_linear" x1="153922" y1="115742" x2="153922" y2="39902.1" gradientUnits="userSpaceOnUse">
<stop stop-color="#808080" stop-opacity="0.25"/>
<stop offset="0.53514" stop-color="#808080" stop-opacity="0.12"/>
<stop offset="1" stop-color="#808080" stop-opacity="0.1"/>
</linearGradient>
<clipPath id="clip0">
<rect width="350" height="259.637" fill="white" transform="translate(4)"/>
</clipPath>
</defs>
</svg>
