<svg width="500" height="450" viewBox="0 0 500 450" fill="none" xmlns="http://www.w3.org/2000/svg">
<path d="M451.433 215.505L443.986 254.5L437.941 286.134L433.122 311.364L427.081 342.998L407.338 446.348L162.702 314.749L144.719 305.074L121.958 292.828L103.969 283.153L82.333 271.512L94.5987 250.738L104.798 233.463L117.702 211.607L127.899 194.343L242.645 0L364.199 125.467L385.845 147.809L403.105 165.624L424.754 187.966L451.433 215.505Z" fill="#F2F2F2"/>
<path d="M95.8408 330.228C79.4823 319.612 69.2985 305.118 65.5722 287.149C62.8054 273.807 63.6005 258.794 67.935 242.527C71.1483 230.533 75.9661 219.204 82.2108 208.957C115.34 154.366 118.33 118.795 115.005 98.5667C111.359 76.3871 99.5131 67.1758 99.3938 67.0854L99.9052 66.1699C100.027 66.2624 112.185 75.6878 115.919 98.3174C118.071 111.363 117.059 126.239 112.909 142.532C107.745 162.808 97.674 185.369 82.9771 209.588C76.7893 219.741 72.0153 230.966 68.8309 242.85C61.7218 269.531 60.716 306.182 96.2975 329.275L95.8408 330.228Z" fill="#2F2E41"/>
<path d="M103.708 330.228C120.066 319.612 130.25 305.118 133.976 287.149C136.743 273.807 135.948 258.794 131.613 242.527C128.4 230.533 123.582 219.204 117.338 208.957C84.2086 154.366 81.2185 118.795 84.5438 98.5667C88.1898 76.3871 100.035 67.1758 100.155 67.0854L99.6433 66.1699C99.5211 66.2624 87.3633 75.6878 83.6297 98.3174C81.4773 111.363 82.4899 126.239 86.6394 142.532C91.8039 162.808 101.875 185.369 116.571 209.588C122.759 219.741 127.533 230.966 130.718 242.85C137.827 269.531 138.832 306.182 103.251 329.275L103.708 330.228Z" fill="#2F2E41"/>
<path d="M460.251 284.365C443.893 273.749 433.709 259.255 429.983 241.286C427.216 227.945 428.011 212.932 432.346 196.664C435.559 184.67 440.377 173.341 446.621 163.095C479.75 108.504 482.741 72.932 479.415 52.7039C475.769 30.5244 463.924 21.313 463.804 21.2226L464.316 20.3071C464.438 20.3996 476.596 29.8251 480.329 52.4546C482.482 65.5007 481.469 80.3766 477.32 96.669C472.155 116.946 462.085 139.506 447.388 163.725C441.2 173.878 436.426 185.103 433.242 196.987C426.132 223.668 425.127 260.32 460.708 283.412L460.251 284.365Z" fill="#2F2E41"/>
<path d="M468.118 284.365C484.477 273.749 494.661 259.255 498.387 241.286C501.154 227.945 500.359 212.932 496.024 196.664C492.811 184.67 487.993 173.341 481.748 163.095C448.619 108.504 445.629 72.932 448.954 52.7039C452.6 30.5244 464.446 21.313 464.565 21.2226L464.054 20.3071C463.932 20.3996 451.774 29.8251 448.04 52.4546C445.888 65.5007 446.901 80.3766 451.05 96.669C456.215 116.946 466.285 139.506 480.982 163.725C487.17 173.878 491.944 185.103 495.128 196.987C502.237 223.668 503.243 260.32 467.662 283.412L468.118 284.365Z" fill="#2F2E41"/>
<path d="M219.404 163.765C207.113 139.588 182.796 138.461 182.796 138.461C182.796 138.461 159.101 134.934 143.901 171.756C129.733 206.077 110.179 239.214 140.753 247.249L146.275 227.239L149.695 248.738C154.048 249.103 158.415 249.19 162.776 248.999C195.518 247.768 226.7 249.359 225.696 235.681C224.361 217.498 231.23 187.028 219.404 163.765Z" fill="#2F2E41"/>
<path d="M168.955 214.365C173.19 225.272 175.86 238.272 177.455 252.712L211.457 250.238C203.64 237.342 201.044 222.541 204.019 205.707L168.955 214.365Z" fill="#FFB8B8"/>
<path opacity="0.2" d="M168.955 214.365C173.19 225.272 175.86 238.272 177.455 252.712L211.457 250.238C203.64 237.342 201.044 222.541 204.019 205.707L168.955 214.365Z" fill="black"/>
<path d="M11.196 422.015C11.196 422.015 -6.40211 432.989 2.52799 442.358C11.4581 451.727 23.2543 429.956 23.2543 429.956L11.196 422.015Z" fill="#FFB8B8"/>
<path d="M226.334 390.015L226.059 405.007L225.472 437.4V437.405L225.301 446.786H112.765L117.338 417.221L117.343 417.199L121.438 390.737L123.266 378.886V378.881L215.709 364.038L226.334 390.015Z" fill="#2F2E41"/>
<path d="M226.333 390.017L226.056 405.009C193.351 404.032 142.656 394.841 121.437 390.734L123.265 378.884L215.707 364.04L226.333 390.017Z" fill="#3F3D56"/>
<path d="M185.424 224.88C200.095 224.88 211.988 211.034 211.988 193.955C211.988 176.876 200.095 163.031 185.424 163.031C170.753 163.031 158.86 176.876 158.86 193.955C158.86 211.034 170.753 224.88 185.424 224.88Z" fill="#FFB8B8"/>
<path d="M236.427 406.716C236.427 406.716 239.615 440.114 220.489 437.64L217.301 404.242L200.3 384.45L152.485 383.213L117.421 421.56C117.421 421.56 116.358 381.976 120.608 378.265C124.858 374.554 134.421 365.896 134.421 365.896V359.711L105.732 291.677C105.732 291.677 122.733 250.856 136.547 249.619L154.61 248.382C154.61 248.382 160.985 244.671 160.985 243.434C160.985 242.197 159.923 232.302 165.236 234.776C165.236 234.776 165.714 222.084 171.313 225.956C171.313 225.956 188.941 242.037 206.835 226.661C206.835 226.661 215.176 224.88 214.113 229.828C213.051 234.776 214.113 238.487 216.238 238.487C218.364 238.487 227.927 242.197 227.927 244.671C227.927 245.203 228.617 250.324 229.701 258.031V258.043C233.643 286.135 242.802 348.578 242.802 348.578C242.802 348.578 252.365 364.659 236.427 406.716Z" fill="#548EFF"/>
<path d="M113.17 285.492L105.732 291.677L37.7285 393.109L1.60156 426.507C1.60156 426.507 21.7902 422.797 17.5399 442.588L141.859 359.711L113.17 285.492Z" fill="#548EFF"/>
<path d="M229.701 258.031V258.043C228.288 267.717 182.236 265.7 175.861 265.7C169.486 265.7 164.173 264.463 157.798 259.515C151.422 254.568 154.61 248.383 154.61 248.383C154.61 248.383 160.038 243.569 160.038 242.332C160.038 241.095 158.976 231.2 164.289 233.674C164.289 233.674 164.767 220.982 170.366 224.854C170.366 224.854 188.941 242.037 206.835 226.661C206.835 226.661 215.176 224.88 214.113 229.828C213.051 234.776 214.113 238.487 216.238 238.487C218.363 238.487 227.926 242.198 227.926 244.672C227.926 245.204 228.617 250.325 229.701 258.031Z" fill="#3F3D56"/>
<path d="M224.208 211.892C224.208 211.892 215.707 190.863 207.207 200.759C198.706 210.655 216.77 225.498 216.77 225.498L224.208 211.892Z" fill="#FFB8B8"/>
<path d="M224.208 206.944C224.208 206.944 211.082 226.255 207.019 227.732C207.019 227.732 218.895 282.4 233.771 297.243L242.271 347.96C242.271 347.96 278.398 330.642 269.898 302.191C269.813 301.907 269.728 301.624 269.644 301.343C262.546 277.65 252.751 255.172 240.52 234.51L224.208 206.944Z" fill="#548EFF"/>
<path opacity="0.2" d="M217.193 264.22L243.333 347.96L233.77 297.243L217.193 264.22Z" fill="black"/>
<path d="M213.97 161.434L189.946 146.785L156.77 152.778L149.906 188.07L166.993 187.305L171.766 174.339V187.091L179.65 186.738L184.226 166.096L187.086 188.07L215.114 187.404L213.97 161.434Z" fill="#2F2E41"/>
<path d="M440.917 351.798L454.547 408.401C454.547 408.401 451.738 458.537 464.846 448.728C478.259 438.69 473.272 396.412 473.272 396.412L465.415 345.632L440.917 351.798Z" fill="#A0616A"/>
<path d="M448.201 193.014L459.457 206.117V268.552C459.457 268.552 466.078 280.114 464.754 283.197C463.429 286.28 462.105 286.28 463.429 288.593C464.754 290.905 466.078 292.447 464.754 293.988C463.429 295.53 463.429 299.384 464.754 300.926C466.078 302.467 468.726 304.78 466.74 307.092C464.754 309.404 462.105 307.863 464.754 316.342C467.402 324.82 472.037 327.133 470.713 330.216C469.388 333.299 469.388 341.007 469.388 341.007L440.918 345.632L434.958 258.532L448.201 193.014Z" fill="#D0CDE1"/>
<path d="M470.712 340.236L437.606 341.778L438.93 357.965L468.063 351.798L470.712 340.236Z" fill="#3F3D56"/>
<path d="M379.672 112.465L375.699 158.712L416.088 165.65L419.067 139.058L422.047 112.465H379.672Z" fill="#A0616A"/>
<path opacity="0.1" d="M379.672 112.214L375.699 158.462L416.088 165.4L419.067 138.807L422.047 112.214H379.672Z" fill="black"/>
<path d="M291.942 332.528L314.454 388.797C314.454 388.797 318.427 415.004 324.386 415.775C330.345 416.545 336.304 388.797 336.304 388.797L328.358 374.151L319.089 332.528H291.942Z" fill="#A0616A"/>
<path d="M446.042 447.333H318.771C319.779 428.763 320.414 417.315 320.414 417.315L322.104 414.218L330.3 399.226L336.152 388.522L338.192 384.785L338.95 383.401L346.966 381.698L429.66 364.132C431.028 371.261 432.963 378.227 435.441 384.939C436.005 386.433 436.611 387.926 437.259 389.403C439.338 394.127 441.875 398.603 444.891 401.899C445.578 402.648 446.075 404.649 446.397 407.725C447.192 415.259 446.965 429.27 446.042 447.333Z" fill="#2F2E41"/>
<path d="M401.853 127.496C419.405 127.496 433.634 110.931 433.634 90.4974C433.634 70.0637 419.405 53.499 401.853 53.499C384.3 53.499 370.071 70.0637 370.071 90.4974C370.071 110.931 384.3 127.496 401.853 127.496Z" fill="#A0616A"/>
<path d="M331.007 166.035L326.372 162.952C326.372 162.952 305.847 179.139 299.225 215.366C292.604 251.594 287.97 260.844 287.97 260.844C287.97 260.844 281.348 262.385 285.983 267.781C290.618 273.176 290.618 272.406 286.645 275.489C282.673 278.572 280.024 272.406 282.673 278.572C285.321 284.738 288.632 283.197 285.983 287.051C283.335 290.905 278.7 290.905 281.348 293.988C283.997 297.071 278.7 304.008 282.011 307.092C285.321 310.175 286.645 310.946 286.645 316.341C286.625 319.49 287.073 322.62 287.97 325.591H322.399C322.399 325.591 315.778 310.946 317.765 307.862C319.751 304.779 320.413 301.696 319.089 300.154C317.765 298.613 313.792 301.696 317.765 297.842C321.737 293.988 323.061 296.3 321.737 291.676C320.413 287.051 317.765 289.363 320.413 287.051C323.061 284.738 325.048 285.509 323.724 283.197C322.399 280.884 319.751 280.884 322.399 279.343C325.048 277.801 327.034 279.343 326.372 275.489C325.71 271.635 325.048 273.176 326.372 271.635C327.696 270.093 341.601 217.679 341.601 216.137C341.601 214.596 331.007 166.035 331.007 166.035Z" fill="#D0CDE1"/>
<path d="M324.386 322.508L282.673 325.591L293.267 337.153L322.4 337.924L324.386 322.508Z" fill="#3F3D56"/>
<path d="M336.304 380.318L327.696 398.817C327.696 398.817 353.519 402.671 362.788 406.525C372.058 410.379 395.894 415.775 395.894 415.775L401.853 388.797L336.304 380.318Z" fill="#3F3D56"/>
<path d="M411.784 388.796L419.068 414.233L448.2 407.295L444.89 383.401L411.784 388.796Z" fill="#3F3D56"/>
<path d="M423.702 139.828C423.702 139.828 421.716 138.287 417.081 141.37C412.447 144.453 397.218 145.995 389.935 136.745C382.652 127.496 377.355 119.788 375.368 121.329C373.382 122.871 372.058 140.599 372.058 140.599L365.437 146.766L326.372 162.952L329.683 267.01L335.642 290.905C335.642 290.905 331.007 309.404 336.966 320.195C342.925 330.987 333.655 334.841 333.655 334.841C333.655 334.841 331.669 337.924 332.993 345.632C334.317 353.34 331.669 381.859 331.669 381.859C331.669 381.859 387.948 411.15 446.876 385.713L440.255 356.423L436.945 290.905C436.945 290.905 440.255 280.114 439.593 275.489C438.931 270.864 459.456 206.117 459.456 206.117C459.456 206.117 456.146 173.744 438.931 166.806C421.716 159.869 419.068 152.932 419.068 152.932C419.068 152.932 427.013 142.912 423.702 139.828Z" fill="#D0CDE1"/>
<path d="M369.851 95.2366C369.851 95.2366 366.551 89.4735 367.82 83.2671C368.578 79.7433 368.878 76.107 368.708 72.4797C368.708 72.4797 371.374 62.4311 374.04 56.8158C376.705 51.2004 375.436 48.8361 383.814 47.0628C392.192 45.2895 388.764 32.5811 410.851 46.3239C411.596 47.5351 412.633 48.4622 413.83 48.9882C415.028 49.5142 416.332 49.6155 417.579 49.2794C422.148 48.245 423.798 55.6336 423.798 55.6336C423.798 55.6336 426.845 53.5648 427.987 56.5202C429.13 59.4757 437.275 54.7464 437.275 74.6957C437.275 94.645 428.006 112.465 428.006 112.465C428.006 112.465 428.686 78.9078 413.58 75.509C398.475 72.1102 382.227 62.2095 378.292 74.9179C374.357 87.6263 369.851 95.2366 369.851 95.2366Z" fill="#2F2E41"/>
<path d="M428.337 103.215C429.982 103.215 431.316 101.145 431.316 98.5906C431.316 96.0364 429.982 93.9658 428.337 93.9658C426.691 93.9658 425.357 96.0364 425.357 98.5906C425.357 101.145 426.691 103.215 428.337 103.215Z" fill="#A0616A"/>
</svg>
