<svg width="35" height="29" viewBox="0 0 35 29" fill="none" xmlns="http://www.w3.org/2000/svg">
<g filter="url(#filter0_i)">
<path d="M17.9569 15.8269C17.8922 15.8153 17.8257 15.8132 17.7601 15.8214C17.1028 15.758 16.6069 15.2971 16.6058 14.749C16.6058 14.4863 16.3487 14.2733 16.0317 14.2733C15.7146 14.2733 15.4576 14.4863 15.4576 14.749C15.4593 15.6643 16.1982 16.4661 17.2634 16.7084V17.1841C17.2634 17.4468 17.5205 17.6598 17.8375 17.6598C18.1546 17.6598 18.4116 17.4468 18.4116 17.1841V16.7372C19.6411 16.524 20.4768 15.5752 20.3475 14.5399C20.218 13.5047 19.1654 12.718 17.9093 12.7178C17.1894 12.7178 16.6058 12.2342 16.6058 11.6378C16.6058 11.0413 17.1894 10.5577 17.9093 10.5577C18.6291 10.5577 19.2128 11.0413 19.2128 11.6378C19.2128 11.9005 19.4698 12.1134 19.7869 12.1134C20.1039 12.1134 20.361 11.9005 20.361 11.6378C20.3593 10.6766 19.5466 9.84767 18.4116 9.64932V9.21637C18.4116 8.95367 18.1546 8.74068 17.8375 8.74068C17.5205 8.74068 17.2634 8.95367 17.2634 9.21637V9.67835C16.0788 9.94639 15.3163 10.8994 15.4794 11.9079C15.6426 12.9164 16.6812 13.6692 17.9093 13.6689C18.6196 13.6689 19.199 14.1402 19.2119 14.7285C19.2251 15.3169 18.6667 15.8056 17.9569 15.8269Z" fill="#3ACC6C"/>
<path d="M9.58447 13.23C9.58447 17.0396 13.3116 20.1278 17.9095 20.1278C22.5073 20.1278 26.2345 17.0396 26.2345 13.23C26.2345 9.42031 22.5073 6.33208 17.9095 6.33208C13.3139 6.33626 9.5898 9.42217 9.58447 13.23ZM17.9095 7.28345C21.8733 7.28345 25.0863 9.9457 25.0863 13.23C25.0863 16.5142 21.8733 19.1765 17.9095 19.1765C13.9457 19.1765 10.7327 16.5142 10.7327 13.23C10.7372 9.94733 13.9477 7.28717 17.9095 7.28345Z" fill="#3ACC6C"/>
<path d="M29.0645 21.3006L24.5673 23.0611C23.9463 22.1042 22.7552 21.4952 21.4445 21.4645L17.2929 21.37C16.6355 21.3544 15.9905 21.2165 15.406 20.9663L14.9836 20.7849C12.8206 19.8507 10.2425 19.8531 8.08176 20.791L8.10811 19.998C8.1168 19.7353 7.86703 19.5165 7.54999 19.5093L2.99755 19.4055C2.6805 19.3983 2.41672 19.6052 2.40803 19.8679L2.13303 28.1455C2.12434 28.4082 2.37411 28.627 2.69116 28.6342L7.2436 28.738H7.25929C7.57045 28.738 7.82498 28.5329 7.83339 28.2753L7.84657 27.8793L9.02925 27.3546C9.49347 27.1477 10.0362 27.0984 10.5433 27.2173L17.6057 28.8597C17.6181 28.8627 17.6304 28.865 17.643 28.8674C18.1535 28.9559 18.6738 29.0002 19.1952 29C20.2996 29.0005 21.3912 28.8033 22.395 28.4214C22.4197 28.4121 22.4435 28.4012 22.4662 28.3889L32.7061 22.9009C32.9612 22.7641 33.0437 22.4865 32.8942 22.2673C32.134 21.1496 30.4479 20.7238 29.0645 21.3006ZM3.29665 27.6963L3.53997 20.3696L6.94449 20.4472L6.70117 27.7741L3.29665 27.6963ZM21.8778 27.5718C20.6307 28.0382 19.2378 28.1668 17.8973 27.9399L10.8539 26.3017C10.0611 26.1162 9.21258 26.193 8.48739 26.5161L7.88301 26.7844L8.04476 21.913C9.95992 20.8576 12.4161 20.7492 14.4557 21.6297L14.8782 21.8111C15.6166 22.127 16.4309 22.3012 17.2615 22.3211L21.4133 22.4157C22.5795 22.4435 23.5699 23.1315 23.8065 24.0782L17.6223 23.9368C17.3052 23.9296 17.0414 24.1368 17.0325 24.3992C17.0238 24.6619 17.2738 24.8807 17.5906 24.8879L24.4153 25.0435H24.4313C24.7422 25.0433 24.9964 24.8382 25.0048 24.5809C25.0118 24.3741 24.9933 24.1672 24.9493 23.9637L29.562 22.1579C29.5665 22.1562 29.571 22.1544 29.5755 22.1525C30.2298 21.8782 31.0208 21.9699 31.5591 22.3827L21.8778 27.5718Z" fill="#3ACC6C"/>
<path d="M18.4832 4.99468V0.475688C18.4832 0.212993 18.2261 3.8147e-06 17.9091 3.8147e-06C17.592 3.8147e-06 17.335 0.212993 17.335 0.475688V4.99468C17.335 5.25738 17.592 5.47037 17.9091 5.47037C18.2261 5.47037 18.4832 5.25738 18.4832 4.99468Z" fill="#3ACC6C"/>
<path d="M22.7893 4.99469V2.85411C22.7893 2.59142 22.5323 2.37843 22.2152 2.37843C21.8982 2.37843 21.6411 2.59142 21.6411 2.85411V4.99469C21.6411 5.25738 21.8982 5.47037 22.2152 5.47037C22.5323 5.47037 22.7893 5.25738 22.7893 4.99469Z" fill="#3ACC6C"/>
<path d="M14.1775 4.99469V2.85411C14.1775 2.59142 13.9204 2.37843 13.6034 2.37843C13.2864 2.37843 13.0293 2.59142 13.0293 2.85411V4.99469C13.0293 5.25738 13.2864 5.47037 13.6034 5.47037C13.9204 5.47037 14.1775 5.25738 14.1775 4.99469Z" fill="#3ACC6C"/>
</g>
<defs>
<filter id="filter0_i" x="0" y="0" width="35" height="33" filterUnits="userSpaceOnUse" color-interpolation-filters="sRGB">
<feFlood flood-opacity="0" result="BackgroundImageFix"/>
<feBlend mode="normal" in="SourceGraphic" in2="BackgroundImageFix" result="shape"/>
<feColorMatrix in="SourceAlpha" type="matrix" values="0 0 0 0 0 0 0 0 0 0 0 0 0 0 0 0 0 0 127 0" result="hardAlpha"/>
<feOffset dy="4"/>
<feGaussianBlur stdDeviation="2"/>
<feComposite in2="hardAlpha" operator="arithmetic" k2="-1" k3="1"/>
<feColorMatrix type="matrix" values="0 0 0 0 0 0 0 0 0 0 0 0 0 0 0 0 0 0 0.25 0"/>
<feBlend mode="normal" in2="shape" result="effect1_innerShadow"/>
</filter>
</defs>
</svg>
