<svg width="500" height="550" viewBox="0 0 500 550" fill="none" xmlns="http://www.w3.org/2000/svg">
<path opacity="0.1" d="M313.651 88.6705C292.836 107.441 265.836 106.219 242.18 96.4622C218.524 86.7051 196.788 69.3037 173.747 56.9423C154.392 46.5736 134.185 39.7888 113.619 36.7542C84.2418 32.4231 51.438 37.6948 30.9671 68.0402C8.17236 101.839 9.92012 162.804 34.5758 193.816C47.1154 209.596 63.5394 217.338 77.8612 229.658C92.183 241.977 105.432 262.439 104.215 286.221C103.088 308.234 89.9626 325.13 76.3793 335.729C65.878 343.921 52.9446 352.864 51.6793 369.83C50.4583 386.249 61.3289 399.116 71.7121 406.43C105.584 430.296 147.314 430.065 181.053 405.826C193.09 397.178 204.158 385.68 216.781 378.942C249.929 361.245 286.45 379.061 321.548 385.575C351.351 391.077 381.62 388.237 410.659 377.215C428.038 370.602 445.487 360.494 457.696 341.661C466.499 328.078 471.974 310.894 477.138 293.928C482.629 275.827 487.907 257.6 492.971 239.246C496.014 228.226 499.007 216.994 499.79 205.202C501.213 183.841 495.221 162.726 487.054 144.693C467.656 101.881 435.01 71.7816 399.661 64.1373C364.312 56.4931 326.9 71.4376 299.477 104.099" fill="#548EFF"/>
<path opacity="0.1" d="M66.8284 550C103.737 550 133.657 541.659 133.657 531.371C133.657 521.082 103.737 512.741 66.8284 512.741C29.9201 512.741 0 521.082 0 531.371C0 541.659 29.9201 550 66.8284 550Z" fill="#548EFF"/>
<path opacity="0.1" d="M265.359 511.091C342.727 511.091 405.446 502.75 405.446 492.461C405.446 482.172 342.727 473.832 265.359 473.832C187.991 473.832 125.272 482.172 125.272 492.461C125.272 502.75 187.991 511.091 265.359 511.091Z" fill="#548EFF"/>
<path d="M360.447 359.82C360.447 359.82 380.086 310.22 409.68 295.943C422.091 289.941 432.928 278.661 440.337 263.246C443.844 255.918 446.873 248.147 449.386 240.032" stroke="#535461" stroke-width="2" stroke-miterlimit="10"/>
<path d="M467.961 230.865C464.589 235.526 448.894 240.348 448.894 240.348C448.894 240.348 452.748 218.131 456.116 213.463C457.734 211.224 459.911 209.992 462.166 210.04C464.421 210.088 466.57 211.412 468.141 213.719C469.712 216.027 470.575 219.13 470.542 222.345C470.508 225.56 469.58 228.625 467.961 230.865Z" fill="#548EFF"/>
<path d="M459.085 271.08C454.477 272.378 439.466 264.264 439.466 264.264C439.466 264.264 451.168 248.596 455.771 247.291C456.877 246.942 458.021 246.911 459.136 247.201C460.25 247.49 461.313 248.094 462.261 248.977C463.21 249.86 464.025 251.005 464.659 252.343C465.294 253.681 465.734 255.187 465.955 256.771C466.175 258.355 466.172 259.986 465.944 261.569C465.717 263.151 465.27 264.653 464.63 265.985C463.99 267.318 463.17 268.455 462.218 269.33C461.266 270.205 460.2 270.8 459.085 271.08Z" fill="#548EFF"/>
<path d="M426.739 314.593C422.308 312.403 412.215 294.595 412.215 294.595C412.215 294.595 427.866 289.484 432.302 291.675C433.383 292.167 434.383 292.962 435.245 294.014C436.107 295.066 436.812 296.352 437.32 297.799C437.828 299.245 438.128 300.821 438.202 302.435C438.276 304.049 438.123 305.667 437.752 307.196C437.381 308.724 436.8 310.131 436.042 311.334C435.284 312.538 434.364 313.512 433.338 314.202C432.312 314.891 431.2 315.281 430.066 315.348C428.933 315.415 427.802 315.159 426.739 314.593Z" fill="#548EFF"/>
<path d="M397.096 339.661C392.463 338.573 380.411 323.438 380.411 323.438C380.411 323.438 395.23 314.636 399.863 315.717C400.964 315.976 402.019 316.542 402.968 317.382C403.916 318.223 404.739 319.321 405.39 320.615C406.04 321.909 406.506 323.373 406.759 324.923C407.013 326.474 407.05 328.08 406.868 329.651C406.687 331.222 406.29 332.726 405.7 334.078C405.111 335.43 404.341 336.603 403.433 337.531C402.526 338.458 401.499 339.122 400.412 339.484C399.324 339.846 398.197 339.899 397.096 339.64V339.661Z" fill="#548EFF"/>
<path d="M426.375 246.926C426.375 253.622 434.872 273.045 434.872 273.045C434.872 273.045 443.379 253.629 443.384 246.933C443.331 243.767 442.411 240.757 440.822 238.545C439.233 236.333 437.1 235.095 434.879 235.095C432.659 235.095 430.526 236.333 428.937 238.545C427.347 240.757 426.428 243.767 426.375 246.933V246.926Z" fill="#548EFF"/>
<path d="M391.951 276.85C393.354 283.237 405.534 298.147 405.534 298.147C405.534 298.147 409.581 275.993 408.178 269.606C407.504 266.534 406.002 263.969 404.002 262.477C402.002 260.984 399.669 260.685 397.514 261.645C395.36 262.606 393.561 264.748 392.514 267.599C391.467 270.45 391.257 273.778 391.931 276.85H391.951Z" fill="#548EFF"/>
<path d="M361.289 312.502C361.914 319.142 372.16 336.768 372.16 336.768C372.16 336.768 378.772 315.913 378.146 309.273C377.846 306.085 376.67 303.199 374.877 301.248C373.084 299.297 370.821 298.442 368.585 298.87C366.35 299.298 364.325 300.975 362.957 303.531C361.589 306.088 360.989 309.314 361.289 312.502Z" fill="#548EFF"/>
<path opacity="0.25" d="M467.961 230.865C464.589 235.526 448.894 240.348 448.894 240.348C448.894 240.348 452.748 218.131 456.116 213.463C457.734 211.224 459.911 209.992 462.166 210.04C464.421 210.088 466.57 211.412 468.141 213.719C469.712 216.027 470.575 219.13 470.542 222.345C470.508 225.56 469.58 228.625 467.961 230.865Z" fill="black"/>
<path opacity="0.25" d="M459.085 271.08C454.477 272.378 439.466 264.264 439.466 264.264C439.466 264.264 451.168 248.596 455.771 247.291C456.877 246.942 458.021 246.911 459.136 247.201C460.25 247.49 461.313 248.094 462.261 248.977C463.21 249.86 464.025 251.005 464.659 252.343C465.294 253.681 465.734 255.187 465.955 256.771C466.175 258.355 466.172 259.986 465.944 261.569C465.717 263.151 465.27 264.653 464.63 265.985C463.99 267.318 463.17 268.455 462.218 269.33C461.266 270.205 460.2 270.8 459.085 271.08Z" fill="black"/>
<path opacity="0.25" d="M426.739 314.593C422.308 312.403 412.215 294.595 412.215 294.595C412.215 294.595 427.866 289.484 432.302 291.675C433.383 292.167 434.383 292.962 435.245 294.014C436.107 295.066 436.812 296.352 437.32 297.799C437.828 299.245 438.128 300.821 438.202 302.435C438.276 304.049 438.123 305.667 437.752 307.196C437.381 308.724 436.8 310.131 436.042 311.334C435.284 312.538 434.364 313.512 433.338 314.202C432.312 314.891 431.2 315.281 430.066 315.348C428.933 315.415 427.802 315.159 426.739 314.593Z" fill="black"/>
<path opacity="0.25" d="M397.096 339.661C392.463 338.573 380.411 323.438 380.411 323.438C380.411 323.438 395.23 314.636 399.863 315.717C400.964 315.976 402.019 316.542 402.968 317.382C403.916 318.223 404.739 319.321 405.39 320.615C406.04 321.909 406.506 323.373 406.759 324.923C407.013 326.474 407.05 328.08 406.868 329.651C406.687 331.222 406.29 332.726 405.7 334.078C405.111 335.43 404.341 336.603 403.433 337.531C402.526 338.458 401.499 339.122 400.412 339.484C399.324 339.846 398.197 339.899 397.096 339.64V339.661Z" fill="black"/>
<path opacity="0.25" d="M426.375 246.926C426.375 253.622 434.872 273.045 434.872 273.045C434.872 273.045 443.379 253.629 443.384 246.933C443.331 243.767 442.411 240.757 440.822 238.545C439.233 236.333 437.1 235.095 434.879 235.095C432.659 235.095 430.526 236.333 428.937 238.545C427.347 240.757 426.428 243.767 426.375 246.933V246.926Z" fill="black"/>
<path opacity="0.25" d="M391.951 276.85C393.354 283.237 405.534 298.147 405.534 298.147C405.534 298.147 409.581 275.993 408.178 269.606C407.504 266.534 406.002 263.969 404.002 262.477C402.002 260.984 399.669 260.685 397.514 261.645C395.36 262.606 393.561 264.748 392.514 267.599C391.467 270.45 391.257 273.778 391.931 276.85H391.951Z" fill="black"/>
<path opacity="0.25" d="M361.289 312.502C361.914 319.142 372.16 336.768 372.16 336.768C372.16 336.768 378.772 315.913 378.146 309.273C377.846 306.085 376.67 303.199 374.877 301.248C373.084 299.297 370.821 298.442 368.585 298.87C366.35 299.298 364.325 300.975 362.957 303.531C361.589 306.088 360.989 309.314 361.289 312.502Z" fill="black"/>
<path d="M361.58 358.831C361.58 358.831 365.435 302.141 388.406 271.992C398.099 259.43 404.674 242.726 407.144 224.386C408.267 215.665 408.827 206.816 408.818 197.95" stroke="#535461" stroke-width="2" stroke-miterlimit="10"/>
<path d="M423.219 178.836C421.461 185.049 408.483 198.491 408.483 198.491C408.483 198.491 405.687 175.951 407.445 169.711C408.353 166.87 409.995 164.639 412.029 163.481C414.063 162.324 416.331 162.33 418.362 163.498C420.393 164.666 422.029 166.906 422.93 169.752C423.831 172.597 423.928 175.829 423.199 178.773L423.219 178.836Z" fill="#548EFF"/>
<path d="M426.527 220.714C422.687 224.568 406.657 225.825 406.657 225.825C406.657 225.825 412.905 204.766 416.745 200.884C418.59 199.075 420.861 198.377 423.066 198.941C425.27 199.505 427.229 201.287 428.517 203.898C429.806 206.51 430.319 209.741 429.947 212.89C429.574 216.038 428.345 218.85 426.527 220.714Z" fill="#548EFF"/>
<path d="M409.34 279.174C404.663 279.735 390.381 269.283 390.381 269.283C390.381 269.283 403.235 255.574 407.917 255.012C409.03 254.879 410.15 255.06 411.214 255.544C412.278 256.028 413.264 256.806 414.117 257.833C414.97 258.861 415.672 260.118 416.184 261.533C416.697 262.947 417.008 264.492 417.102 266.079C417.195 267.665 417.068 269.262 416.729 270.779C416.389 272.295 415.844 273.702 415.123 274.918C414.402 276.134 413.521 277.136 412.528 277.866C411.536 278.596 410.453 279.04 409.34 279.174Z" fill="#548EFF"/>
<path d="M389.351 319.227C384.807 320.904 369.491 314.046 369.491 314.046C369.491 314.046 380.539 297.431 385.083 295.753C387.266 294.946 389.585 295.409 391.529 297.039C393.473 298.67 394.883 301.334 395.449 304.447C396.015 307.56 395.691 310.866 394.547 313.637C393.404 316.409 391.535 318.42 389.351 319.227Z" fill="#548EFF"/>
<path d="M389.755 217.514C391.66 223.635 404.948 236.466 404.948 236.466C404.948 236.466 407.208 213.807 405.308 207.686C404.394 204.746 402.698 202.443 400.593 201.286C398.489 200.128 396.148 200.21 394.085 201.513C392.023 202.816 390.408 205.234 389.596 208.235C388.784 211.235 388.841 214.573 389.755 217.514Z" fill="#548EFF"/>
<path d="M366.793 264.783C369.895 269.809 385.27 276.401 385.27 276.401C385.27 276.401 382.671 253.812 379.574 248.779C378.086 246.359 375.984 244.881 373.731 244.67C371.478 244.459 369.259 245.533 367.561 247.656C365.864 249.778 364.827 252.775 364.68 255.987C364.532 259.199 365.285 262.363 366.774 264.783H366.793Z" fill="#548EFF"/>
<path d="M348.897 315.091C351.359 320.798 365.73 330.998 365.73 330.998C365.73 330.998 365.848 308.107 363.392 302.4C362.211 299.66 360.316 297.7 358.122 296.952C355.928 296.205 353.616 296.73 351.694 298.413C349.772 300.096 348.397 302.799 347.873 305.927C347.349 309.054 347.717 312.351 348.897 315.091Z" fill="#548EFF"/>
<path d="M138.757 0V19.2194V495.199H388.564V19.2194V0H138.757Z" fill="url(#paint0_linear)"/>
<path d="M386.373 4.34521H140.948V23.2207H386.373V4.34521Z" fill="#F6F7F9"/>
<g opacity="0.2">
<path opacity="0.2" d="M386.373 4.34521H140.948V23.2207H386.373V4.34521Z" fill="#548EFF"/>
</g>
<path d="M386.373 23.2202H140.948V490.853H386.373V23.2202Z" fill="#F6F7F9"/>
<path d="M147.402 16.9799C148.642 16.9799 149.647 15.5468 149.647 13.779C149.647 12.0112 148.642 10.5781 147.402 10.5781C146.163 10.5781 145.157 12.0112 145.157 13.779C145.157 15.5468 146.163 16.9799 147.402 16.9799Z" fill="#F6F7F9"/>
<path d="M153.488 16.9799C154.728 16.9799 155.733 15.5468 155.733 13.779C155.733 12.0112 154.728 10.5781 153.488 10.5781C152.248 10.5781 151.243 12.0112 151.243 13.779C151.243 15.5468 152.248 16.9799 153.488 16.9799Z" fill="#F6F7F9"/>
<path d="M159.573 16.9799C160.813 16.9799 161.818 15.5468 161.818 13.779C161.818 12.0112 160.813 10.5781 159.573 10.5781C158.333 10.5781 157.328 12.0112 157.328 13.779C157.328 15.5468 158.333 16.9799 159.573 16.9799Z" fill="#F6F7F9"/>
<g opacity="0.2">
<path opacity="0.2" d="M342.566 52.0498H184.75V60.8593H342.566V52.0498Z" fill="#548EFF"/>
</g>
<path d="M342.566 52.0498H321.598V60.8593H342.566V52.0498Z" fill="#548EFF"/>
<g opacity="0.2">
<path opacity="0.2" d="M261.445 232.08H162.133V333.505H261.445V232.08Z" fill="#548EFF"/>
</g>
<g opacity="0.2">
<path opacity="0.2" d="M261.445 100.512H162.133V201.937H261.445V100.512Z" fill="#548EFF"/>
</g>
<g opacity="0.2">
<path opacity="0.2" d="M261.445 361.933H162.133V463.358H261.445V361.933Z" fill="#548EFF"/>
</g>
<g opacity="0.2">
<path opacity="0.2" d="M365.188 232.08H265.876V333.505H365.188V232.08Z" fill="#548EFF"/>
</g>
<g opacity="0.2">
<path opacity="0.2" d="M365.188 100.512H265.876V201.937H365.188V100.512Z" fill="#548EFF"/>
</g>
<g opacity="0.2">
<path opacity="0.2" d="M365.188 361.933H265.876V463.358H365.188V361.933Z" fill="#548EFF"/>
</g>
<path d="M458.637 445.388C458.637 445.388 462.152 451.937 457.017 461.821C451.882 471.704 447.663 480.072 449.361 486.221C449.361 486.221 457.105 467.858 463.412 467.605C469.719 467.352 465.574 456.43 458.637 445.388Z" fill="#3ACC6C"/>
<path opacity="0.1" d="M458.637 445.388C458.944 446.019 459.186 446.709 459.356 447.438C465.51 457.743 468.784 467.359 462.871 467.605C457.367 467.83 450.755 481.869 449.174 485.414C449.226 485.687 449.289 485.957 449.361 486.221C449.361 486.221 457.106 467.858 463.412 467.605C469.719 467.352 465.574 456.43 458.637 445.388Z" fill="black"/>
<path d="M465.17 453.734C465.17 456.037 464.988 457.904 464.766 457.904C464.545 457.904 464.358 456.037 464.358 453.734C464.358 451.432 464.584 452.513 464.811 452.513C465.037 452.513 465.17 451.425 465.17 453.734Z" fill="#FFD037"/>
<path d="M467.41 456.486C465.992 457.588 464.751 458.255 464.648 457.974C464.545 457.694 465.603 456.57 467.021 455.468C468.439 454.366 467.883 455.174 468.006 455.468C468.129 455.763 468.828 455.405 467.41 456.486Z" fill="#FFD037"/>
<path d="M440.086 445.388C440.086 445.388 436.571 451.937 441.706 461.821C446.841 471.704 451.06 480.072 449.361 486.221C449.361 486.221 441.617 467.858 435.31 467.605C429.004 467.352 433.139 456.43 440.086 445.388Z" fill="#3ACC6C"/>
<path opacity="0.1" d="M440.086 445.388C439.779 446.019 439.537 446.709 439.367 447.438C433.213 457.743 429.939 467.359 435.852 467.605C441.361 467.83 447.968 481.869 449.548 485.414C449.499 485.688 449.436 485.958 449.361 486.221C449.361 486.221 441.617 467.858 435.31 467.605C429.004 467.352 433.139 456.43 440.086 445.388Z" fill="black"/>
<path d="M433.552 453.734C433.552 456.037 433.735 457.904 433.961 457.904C434.188 457.904 434.365 456.037 434.365 453.734C434.365 451.432 434.138 452.513 433.917 452.513C433.695 452.513 433.552 451.425 433.552 453.734Z" fill="#FFD037"/>
<path d="M431.313 456.486C432.735 457.588 433.971 458.255 434.08 457.974C434.188 457.694 433.12 456.57 431.702 455.468C430.284 454.366 430.84 455.174 430.717 455.468C430.594 455.763 429.895 455.405 431.313 456.486Z" fill="#FFD037"/>
<path opacity="0.1" d="M449.361 536.327C469.645 536.327 486.089 532.728 486.089 528.289C486.089 523.85 469.645 520.252 449.361 520.252C429.077 520.252 412.634 523.85 412.634 528.289C412.634 532.728 429.077 536.327 449.361 536.327Z" fill="#548EFF"/>
<path d="M468.267 477.397L468.089 479.44L467.843 482.332L467.74 483.532L467.494 486.424L467.385 487.632L467.139 490.517L464.328 523.368C464.077 526.302 460.719 528.584 456.662 528.584H442.06C438.003 528.584 434.675 526.302 434.399 523.368L431.583 490.503L431.337 487.618L431.234 486.41L430.983 483.518L430.879 482.318L430.633 479.426L430.456 477.383C430.318 475.762 432.154 474.358 434.429 474.358H464.298C466.588 474.358 468.409 475.762 468.267 477.397Z" fill="#65617D"/>
<path d="M468.089 479.44L467.843 482.325H430.879L430.633 479.44H468.089Z" fill="#9D9CB5"/>
<path d="M467.74 483.532L467.494 486.424H431.234L430.983 483.532H467.74Z" fill="#9D9CB5"/>
<path d="M467.385 487.625L467.139 490.516H431.583L431.337 487.625H467.385Z" fill="#9D9CB5"/>
<path d="M291.265 120.111C291.265 120.111 290.364 116.903 296.439 117.703C302.515 118.504 319.958 121.269 327.5 118.848C335.043 116.426 339.538 115.654 339.09 118.848C338.642 122.042 326.038 129.258 326.038 129.258L309.717 131.665L297.68 128.935L291.216 123.481L291.265 120.111Z" fill="#548EFF"/>
<path opacity="0.1" d="M339.105 118.847C338.652 122.041 326.053 129.257 326.053 129.257L309.733 131.665L297.695 128.942L291.236 123.487L291.28 120.118C291.218 119.84 291.217 119.542 291.279 119.264C291.341 118.986 291.462 118.742 291.625 118.567C292.181 117.865 293.481 117.317 296.455 117.71C302.535 118.511 319.973 121.269 327.516 118.847C333.66 116.875 337.785 115.998 338.839 117.444C338.969 117.621 339.063 117.845 339.109 118.093C339.156 118.34 339.155 118.601 339.105 118.847Z" fill="black"/>
<path d="M348.803 167.444C338.302 170.326 328.399 176.579 319.845 185.73C319.412 184.088 318.597 182.708 317.536 181.82C316.811 181.179 316.02 180.705 315.192 180.416C314.439 180.142 313.715 180.795 313.051 181.735C312.286 182.942 311.645 184.296 311.145 185.758C299.669 174.526 282.26 167.36 282.26 167.36V165.113C282.26 164.671 282.315 164.138 282.374 163.534C282.433 162.93 282.507 162.397 282.6 161.744C284.077 151.032 289.916 126.555 289.916 126.555H291.723H296.518L309.319 130.346L323.719 129.089L338.223 124.786L340.104 124.225C343.24 127.734 346.8 152.303 348.198 162.762C348.375 164.088 348.513 165.183 348.616 165.991C348.739 166.903 348.803 167.444 348.803 167.444Z" fill="#548EFF"/>
<path d="M284.644 162.803C285.023 152.519 290.753 130.232 291.723 126.533H289.916C289.916 126.533 283.733 152.505 282.477 162.642C282.475 162.667 282.475 162.693 282.477 162.719C282.443 162.993 282.408 163.259 282.384 163.512C282.325 164.116 282.285 164.649 282.271 165.091V167.338C282.271 167.338 299.679 174.512 311.155 185.736C311.655 184.274 312.296 182.92 313.061 181.714C308.674 176.028 292.038 166.762 284.644 162.803Z" fill="#548EFF"/>
<path d="M348.617 165.962C348.572 165.604 348.518 165.19 348.459 164.734C348.385 164.144 348.297 163.477 348.198 162.733C346.8 152.26 343.24 127.685 340.104 124.196L338.224 124.758C339.366 129.131 346.726 157.686 346.101 163.26C333.793 166.77 321.317 178.176 317.546 181.819C318.607 182.707 319.422 184.087 319.855 185.729C328.409 176.579 338.312 170.326 348.814 167.444C348.814 167.444 348.74 166.903 348.617 165.962Z" fill="#548EFF"/>
<path opacity="0.1" d="M285.097 162.158C285.471 151.874 291.206 129.587 292.176 125.895H290.365C290.365 125.895 284.181 151.867 282.926 161.996C282.926 161.996 282.926 162.053 282.926 162.074C282.889 162.354 282.86 162.621 282.837 162.874C282.778 163.478 282.738 164.011 282.724 164.453V166.699C282.724 166.699 300.127 173.866 311.608 185.098C312.104 183.634 312.744 182.28 313.509 181.075C309.122 175.404 292.491 166.117 285.097 162.158Z" fill="black"/>
<path d="M284.644 162.803C285.023 152.519 290.753 130.232 291.723 126.533H289.916C289.916 126.533 283.733 152.505 282.477 162.642C282.475 162.667 282.475 162.693 282.477 162.719C282.443 162.993 282.408 163.259 282.384 163.512C282.325 164.116 282.285 164.649 282.271 165.091V167.338C282.271 167.338 299.679 174.512 311.155 185.736C311.655 184.274 312.296 182.92 313.061 181.714C308.674 176.028 292.038 166.762 284.644 162.803Z" fill="#548EFF"/>
<path opacity="0.1" d="M348.168 165.316L348.011 164.088C347.932 163.498 347.848 162.839 347.75 162.087C346.357 151.621 342.792 127.046 339.656 123.55L337.78 124.119C338.922 128.492 346.283 157.047 345.657 162.621C333.349 166.131 320.869 177.537 317.103 181.174C318.164 182.064 318.979 183.447 319.412 185.09C327.963 175.936 337.865 169.68 348.365 166.798C348.365 166.798 348.291 166.271 348.168 165.316Z" fill="black"/>
<path d="M348.617 165.962C348.572 165.604 348.518 165.19 348.459 164.734C348.385 164.144 348.297 163.477 348.198 162.733C346.8 152.26 343.24 127.685 340.104 124.196L338.224 124.758C339.366 129.131 346.726 157.686 346.101 163.26C333.793 166.77 321.317 178.176 317.546 181.819C318.607 182.707 319.422 184.087 319.855 185.729C328.409 176.579 338.312 170.326 348.814 167.444C348.814 167.444 348.74 166.903 348.617 165.962Z" fill="#548EFF"/>
<path opacity="0.1" d="M288.922 139.225C288.922 139.225 300.344 149.474 303.012 134.466L305.553 135.435C305.553 135.435 306.389 152.064 288.164 142.573L288.922 139.225Z" fill="black"/>
<path d="M288.922 137.941C288.922 137.941 300.344 148.189 303.012 133.182L305.553 134.15C305.553 134.15 306.389 150.78 288.164 141.289L288.922 137.941Z" fill="#548EFF"/>
<path opacity="0.1" d="M324.862 134.95C324.862 134.95 326.339 147.213 341.99 141.268L341.438 138.951C341.438 138.951 330.75 145.269 326.875 134.297L324.862 134.95Z" fill="black"/>
<path d="M324.862 133.666C324.862 133.666 326.339 145.929 341.99 139.983L341.438 137.667C341.438 137.667 330.75 143.984 326.875 133.013L324.862 133.666Z" fill="#548EFF"/>
<path opacity="0.1" d="M314.444 134.789V160.382H317.221C317.221 160.382 321.061 158.41 320.972 146.905C320.884 135.4 320.298 132.304 320.298 132.304L314.444 134.789Z" fill="black"/>
<path d="M313.996 134.15V159.743H316.773C316.773 159.743 320.613 157.771 320.524 146.266C320.436 134.761 319.845 131.665 319.845 131.665L313.996 134.15Z" fill="#548EFF"/>
<path opacity="0.1" d="M340.089 125.488C338.957 128.492 328.677 133.427 326.861 134.276L326.585 134.403C326.585 134.403 325.935 134.641 324.847 134.964C321.538 135.947 314.163 137.772 308.6 136.171C307.793 135.947 306.956 135.701 306.104 135.47L304.135 134.859C297.734 132.83 291.113 130.177 289.936 127.839C289.936 127.839 290.256 120.209 291.334 120.413C292.412 120.616 304.45 127.839 304.45 127.839L304.622 127.874C304.932 127.931 305.636 128.057 306.626 128.218C310.535 128.829 318.772 129.798 323.203 128.106C323.414 128.022 323.611 127.938 323.803 127.839C324.138 127.678 324.488 127.509 324.847 127.32C330.548 124.442 339.085 119.29 339.085 119.29C339.085 119.29 341.34 122.182 340.089 125.488Z" fill="black"/>
<path opacity="0.1" d="M339.105 118.847C338.652 122.041 326.053 129.257 326.053 129.257L309.733 131.665L297.695 128.942L291.236 123.487L291.28 120.118C291.218 119.84 291.217 119.542 291.279 119.264C291.341 118.986 291.462 118.742 291.625 118.567C293.767 119.493 304.425 125.888 304.425 125.888L304.598 125.923C304.908 125.979 305.612 126.106 306.601 126.267C310.511 126.878 318.747 127.847 323.178 126.155C323.39 126.071 323.587 125.986 323.779 125.888C324.114 125.734 324.463 125.558 324.823 125.369C329.977 122.764 337.456 118.3 338.839 117.472C338.966 117.646 339.057 117.866 339.104 118.108C339.15 118.35 339.151 118.605 339.105 118.847Z" fill="black"/>
<path d="M340.089 124.196C338.957 127.2 328.677 132.128 326.861 132.977L326.585 133.111C326.585 133.111 325.935 133.342 324.847 133.665C321.538 134.648 314.163 136.473 308.6 134.873C307.793 134.648 306.956 134.402 306.104 134.171L304.135 133.56C297.734 131.531 291.113 128.878 289.936 126.54C289.936 126.54 290.256 118.91 291.334 119.121C292.412 119.331 304.45 126.54 304.45 126.54L304.622 126.576C304.932 126.632 305.636 126.765 306.626 126.92C310.535 127.53 318.772 128.499 323.203 126.807C323.414 126.723 323.611 126.639 323.803 126.54C324.138 126.386 324.488 126.211 324.847 126.021C330.548 123.143 339.085 117.991 339.085 117.991C339.085 117.991 341.34 120.904 340.089 124.196Z" fill="#548EFF"/>
<path opacity="0.1" d="M316.394 134.873C317.389 134.873 318.196 133.722 318.196 132.304C318.196 130.885 317.389 129.734 316.394 129.734C315.399 129.734 314.592 130.885 314.592 132.304C314.592 133.722 315.399 134.873 316.394 134.873Z" fill="black"/>
<path d="M316.394 134.227C317.389 134.227 318.196 133.077 318.196 131.658C318.196 130.239 317.389 129.089 316.394 129.089C315.399 129.089 314.592 130.239 314.592 131.658C314.592 133.077 315.399 134.227 316.394 134.227Z" fill="#548EFF"/>
<path opacity="0.1" d="M307.054 126.892L306.562 134.136L304.593 133.525L305.085 126.548C305.361 126.618 306.07 126.751 307.054 126.892Z" fill="black"/>
<path d="M306.611 126.892L306.119 134.136L304.149 133.525L304.642 126.548C304.913 126.618 305.626 126.751 306.611 126.892Z" fill="#548EFF"/>
<path opacity="0.1" d="M326.422 132.978L326.147 133.111C326.147 133.111 325.502 133.343 324.409 133.666L322.73 126.794C322.942 126.709 323.144 126.625 323.336 126.527C323.67 126.372 324.02 126.197 324.379 126.007L326.422 132.978Z" fill="black"/>
<path d="M326.875 132.978L326.6 133.111C326.6 133.111 325.95 133.343 324.862 133.666L323.183 126.794C323.395 126.709 323.592 126.625 323.784 126.527C324.118 126.372 324.468 126.197 324.827 126.007L326.875 132.978Z" fill="#548EFF"/>
<g opacity="0.5">
<path opacity="0.5" d="M199.894 114.257C202.198 114.278 204.456 115.172 206.437 116.847C206.437 116.847 212.434 117.886 215.703 116.847C218.972 115.808 220.626 112.186 221.247 113.218C221.867 114.25 221.882 123.972 221.882 123.972L219.066 134.725L212.705 141.457L202.622 137.316L199.284 125.151L199.894 114.257Z" fill="#548EFF"/>
<path opacity="0.1" d="M221.882 123.985L219.066 134.739L212.705 141.471L202.622 137.329L199.284 125.151L199.919 114.27H200.067C202.32 114.352 204.521 115.245 206.467 116.867C206.467 116.867 212.464 117.906 215.733 116.867C218.839 115.885 220.474 112.557 221.148 113.119C221.188 113.145 221.223 113.184 221.252 113.231C221.882 114.256 221.882 123.985 221.882 123.985Z" fill="black"/>
<path opacity="0.1" d="M221.882 123.985L219.066 134.739L212.705 141.471L202.622 137.329L199.284 125.15L199.919 114.27H200.067C200.628 117.703 203.021 128.541 210.642 129.306C218.48 130.085 220.705 116.79 221.168 113.126C221.208 113.152 221.243 113.191 221.271 113.238C221.882 114.256 221.882 123.985 221.882 123.985Z" fill="black"/>
<path opacity="0.5" d="M199.894 114.254C199.894 114.254 201.529 129.409 210.617 130.315C219.705 131.22 221.246 113.215 221.246 113.215C221.246 113.215 234.421 119.371 237.493 130.35C240.565 141.328 242.855 150.138 242.855 150.138C242.855 150.138 241.87 152.595 240.762 152.855C239.655 153.114 232.132 160.499 232.132 160.499C232.132 160.499 232.043 181.487 232.86 182.779C233.678 184.07 233.407 189.644 230.95 189.384C228.494 189.124 211.508 183.684 196.98 188.219C196.98 188.219 190.895 191.328 191.072 186.274C191.249 181.22 191.525 161.404 191.525 161.404C191.525 161.404 182.348 155.704 181.806 155.704C181.265 155.704 179.896 154.68 181.348 151.303C182.801 147.927 184.622 136.408 184.622 136.408C184.622 136.408 188.265 119.87 199.894 114.254Z" fill="#548EFF"/>
<path opacity="0.1" d="M228.149 141.471C228.149 141.471 230.876 144.321 230.241 146.525C229.606 148.729 228.149 141.471 228.149 141.471Z" fill="black"/>
<path opacity="0.1" d="M232.147 144.208C231.893 145.472 231.893 146.812 232.147 148.076V144.208Z" fill="black"/>
<path opacity="0.1" d="M233.963 151.319C233.963 151.319 234.328 154.829 233.24 155.201L233.963 151.319Z" fill="black"/>
<path opacity="0.1" d="M196.896 140.565C196.896 140.565 191.81 146.883 193.533 149.375L196.896 140.565Z" fill="black"/>
<path opacity="0.1" d="M193.716 155.854C193.716 155.854 193.632 162.459 195.035 162.978L193.716 155.854Z" fill="black"/>
<path opacity="0.1" d="M208.343 178.001C208.343 178.001 211.789 174.638 212.705 174.765L208.343 178.001Z" fill="black"/>
<path opacity="0.1" d="M211.789 181.503C211.789 181.503 215.521 177.741 216.52 177.994L211.789 181.503Z" fill="black"/>
</g>
<g opacity="0.5">
<path opacity="0.5" d="M292.826 241.766C292.826 241.766 322.553 243.774 337.332 242.538L337.007 248.098L310.855 253.011L303.116 249.614L292.826 241.766Z" fill="#548EFF"/>
<path opacity="0.1" d="M337.352 242.538L337.027 248.098L310.88 253.011L303.135 249.614L292.826 241.766C292.826 241.766 293.436 241.815 294.524 241.878C300.974 242.279 324.197 243.57 336.948 242.58L337.352 242.538Z" fill="black"/>
<path opacity="0.5" d="M347.642 321.592C341.901 326.506 321.977 321.746 321.977 321.746L316.453 293.668L310.279 322.231C301.511 326.709 283.423 320.223 283.423 320.223L290.463 258.452L291.679 249.937L292.826 241.766L303.982 246.553C303.982 246.553 307.335 249.796 321.307 248.87C335.279 247.943 337.332 242.552 337.332 242.552C337.948 242.805 338.534 245.901 339.124 249.747C339.981 255.363 340.853 262.565 341.882 264.945C343.634 268.946 347.642 321.592 347.642 321.592Z" fill="#548EFF"/>
<path opacity="0.1" d="M339.144 250.351C326.688 260.101 315.965 259.834 315.965 259.834C313.312 260.298 291.679 250.547 291.679 250.547L292.826 242.384L303.982 247.171C303.982 247.171 307.335 250.414 321.307 249.488C335.279 248.561 337.332 243.17 337.332 243.17C337.967 243.416 338.553 246.504 339.144 250.351Z" fill="black"/>
<path opacity="0.1" d="M337.352 242.538L337.027 248.098L310.88 253.011L303.135 249.614L292.826 241.766C292.826 241.766 293.436 241.815 294.524 241.878L303.977 245.936C303.977 245.936 307.33 249.179 321.302 248.252C332.276 247.55 335.9 244.04 336.948 242.573L337.352 242.538Z" fill="black"/>
<path opacity="0.5" d="M339.144 249.733C326.688 259.483 315.965 259.217 315.965 259.217C313.312 259.68 291.679 249.93 291.679 249.93L292.826 241.766L303.982 246.553C303.982 246.553 307.335 249.796 321.307 248.87C335.279 247.943 337.332 242.552 337.332 242.552C337.967 242.791 338.553 245.887 339.144 249.733Z" fill="#548EFF"/>
<path opacity="0.1" d="M318.077 257.742C318.706 257.742 319.215 257.017 319.215 256.121C319.215 255.225 318.706 254.5 318.077 254.5C317.449 254.5 316.94 255.225 316.94 256.121C316.94 257.017 317.449 257.742 318.077 257.742Z" fill="black"/>
<path opacity="0.5" d="M318.077 257.125C318.706 257.125 319.215 256.399 319.215 255.503C319.215 254.608 318.706 253.882 318.077 253.882C317.449 253.882 316.94 254.608 316.94 255.503C316.94 256.399 317.449 257.125 318.077 257.125Z" stroke="#548EFF" stroke-miterlimit="10"/>
<path opacity="0.1" d="M289 284.536C289 284.536 291.004 293.03 292.412 292.875C293.82 292.721 289 284.536 289 284.536Z" fill="black"/>
<path opacity="0.1" d="M287.701 292.875C287.701 292.875 288.947 297.971 290.246 298.821L287.701 292.875Z" fill="black"/>
<path opacity="0.1" d="M287.701 298.203C287.701 298.203 289.67 301.755 290.837 302.604L287.701 298.203Z" fill="black"/>
<path opacity="0.1" d="M340.581 266.088C340.581 266.088 342.423 270.026 340.581 270.876V266.088Z" fill="black"/>
<path opacity="0.1" d="M341.419 272.491C339.282 268.876 340.601 277.405 340.601 277.405C340.601 277.405 341.965 273.418 341.419 272.491Z" fill="black"/>
<path opacity="0.1" d="M342.497 276.892C342.497 276.892 339.247 283.764 339.897 284.536L342.497 276.892Z" fill="black"/>
<path opacity="0.1" d="M299.512 266.237C295.529 266.237 291.374 263.667 291.142 263.513L291.32 262.944C291.398 263.001 299.349 267.921 303.652 264.229C305.277 262.825 306.188 260.354 306.365 256.858L306.798 256.908C306.611 260.614 305.627 263.225 303.874 264.755C302.541 265.806 301.033 266.318 299.512 266.237Z" fill="black"/>
<path opacity="0.5" d="M299.512 265.618C295.529 265.618 291.374 263.049 291.142 262.895L291.32 262.333C291.398 262.382 299.349 267.303 303.652 263.611C305.277 262.207 306.188 259.736 306.365 256.24L306.798 256.289C306.611 259.996 305.627 262.607 303.874 264.137C302.541 265.187 301.033 265.699 299.512 265.618Z" fill="#548EFF"/>
<path opacity="0.1" d="M332.212 266.699C331.192 266.72 330.182 266.41 329.258 265.794C326.029 263.575 325.507 258.142 325.482 257.911L325.915 257.833C325.915 257.89 326.432 263.175 329.45 265.239C332.138 267.085 335.954 265.941 340.774 261.729L340.995 262.256C337.564 265.218 334.625 266.699 332.212 266.699Z" fill="black"/>
<path opacity="0.5" d="M332.212 266.082C331.192 266.102 330.182 265.793 329.258 265.176C326.029 262.958 325.507 257.525 325.482 257.293L325.915 257.216C325.915 257.272 326.432 262.558 329.45 264.621C332.138 266.468 335.954 265.323 340.774 261.112L340.995 261.638C337.564 264.6 334.625 266.082 332.212 266.082Z" fill="#548EFF"/>
</g>
<path d="M202.405 242.714C202.405 242.714 207.993 253.84 211.789 252.759C215.585 251.678 215.959 250.491 219.331 242.714L222.098 251.79L218.839 263.021L214.979 270.146L206.797 268.314L204.148 255.567L202.405 242.714Z" fill="#548EFF"/>
<path opacity="0.1" d="M222.098 251.783L218.839 263.014L214.979 270.139L206.797 268.307L204.148 255.56L202.405 242.714C202.405 242.714 202.898 243.683 203.666 245.016C205.541 248.21 209.111 253.517 211.789 252.738C215.531 251.671 215.949 250.499 219.199 243.009L219.331 242.693L222.098 251.783Z" fill="black"/>
<path opacity="0.1" d="M222.098 251.783L218.839 263.014L214.979 270.139L206.797 268.307L204.148 255.56L202.405 242.714C202.405 242.714 202.898 243.683 203.666 245.016C204.887 250.632 207.511 259.638 211.789 259.561C216.619 259.483 218.568 248.077 219.199 243.03L219.331 242.714L222.098 251.783Z" fill="black"/>
<path d="M199.451 242.384C199.451 242.384 197.556 242.061 198.541 245.409C199.525 248.758 201.342 259.771 200.436 262.038C199.53 264.306 199.983 270.462 196.044 271.655L197.177 278.022C197.177 278.022 197.403 292.061 196.95 294.118C196.497 296.174 196.419 307.504 196.571 308.69C196.724 309.876 196.65 317.654 196.044 317.984C195.439 318.314 195.06 322.083 197.029 322.729C198.998 323.375 207.402 323.705 208.919 324.351C210.435 324.996 221.188 324.351 221.188 324.351C221.188 324.351 225.732 323.487 226.869 322.947C228.006 322.406 228.233 321.115 227.854 318.63C227.475 316.145 225.732 298.112 226.111 295.844C226.49 293.577 226.569 271.438 226.569 271.438C226.569 271.438 223.615 270.034 223.615 265.927C223.615 261.821 222.477 250.807 224.826 243.9C224.826 243.9 222.93 242.047 222.63 242.377C222.33 242.707 219.469 241.52 219.469 241.52C219.469 241.52 217.992 260.312 211.814 260.417C205.635 260.522 202.883 241.52 202.883 241.52C202.883 241.52 202.937 239.794 199.451 242.384Z" fill="#548EFF"/>
<path opacity="0.1" d="M208.387 302.646C208.387 302.646 209.662 307.076 211.789 307.722C213.916 308.367 208.387 302.646 208.387 302.646Z" fill="black"/>
<path opacity="0.1" d="M206.418 306.1C206.418 306.1 210.534 310.852 210.356 311.828L206.418 306.1Z" fill="black"/>
<path opacity="0.1" d="M198.162 278.022C198.162 278.022 201.421 281.153 201.421 283.42L198.162 278.022Z" fill="black"/>
<path opacity="0.1" d="M200.357 287.849C200.357 287.849 199.452 283.315 198.846 282.346L200.357 287.849Z" fill="black"/>
<path opacity="0.1" d="M198.846 289.577C198.846 289.577 200.21 293.465 200.357 294.546L198.846 289.577Z" fill="black"/>
<path opacity="0.1" d="M225.279 281.693C225.279 281.693 221.04 283.532 221.414 285.8L225.279 281.693Z" fill="black"/>
<path opacity="0.1" d="M221.394 302.647C221.394 302.647 226.948 293.465 225.279 293.683C223.61 293.901 221.394 302.647 221.394 302.647Z" fill="black"/>
<g opacity="0.1">
<path opacity="0.1" d="M223.61 265.927C223.61 264.032 223.368 260.663 223.339 256.907C223.309 261.217 223.61 265.204 223.61 267.331C223.61 271.346 226.431 272.771 226.564 272.835C226.564 271.957 226.564 271.431 226.564 271.431C226.564 271.431 223.61 270.034 223.61 265.927Z" fill="black"/>
<path opacity="0.1" d="M227.839 320.034C227.897 320.403 227.941 320.775 227.972 321.15C228.035 320.306 227.99 319.452 227.839 318.63C227.514 316.524 226.195 303.005 226.057 297.726C225.909 301.334 227.494 317.676 227.839 320.034Z" fill="black"/>
<path opacity="0.1" d="M196.502 306.03C196.502 302.176 196.655 296.863 196.95 295.501C197.192 294.406 197.241 289.927 197.236 285.968C197.236 289.52 197.162 293.128 196.95 294.097C196.616 295.627 196.488 302.211 196.502 306.03Z" fill="black"/>
<path opacity="0.1" d="M199.452 243.788C202.932 241.198 202.858 242.924 202.858 242.924C202.858 242.924 205.586 261.933 211.789 261.821C217.993 261.709 219.47 242.924 219.47 242.924C219.47 242.924 222.35 244.111 222.65 243.781C222.95 243.451 223.96 244.483 224.516 244.988C224.619 244.616 224.728 244.251 224.851 243.9C224.851 243.9 222.955 242.047 222.65 242.377C222.345 242.707 219.47 241.52 219.47 241.52C219.47 241.52 217.993 260.312 211.814 260.417C205.635 260.522 202.883 241.52 202.883 241.52C202.883 241.52 202.957 239.794 199.476 242.384C199.476 242.384 197.935 242.131 198.364 244.553C198.61 243.647 199.452 243.788 199.452 243.788Z" fill="black"/>
<path opacity="0.1" d="M196.04 319.388C196.532 319.128 196.665 314.32 196.635 311.667C196.611 314.334 196.438 317.766 196.04 317.984C195.641 318.202 195.449 319.388 195.601 320.532C195.68 319.928 195.838 319.486 196.04 319.388Z" fill="black"/>
<path opacity="0.1" d="M200.436 263.442C200.677 262.522 200.756 261.531 200.667 260.557C200.663 261.068 200.584 261.573 200.436 262.038C199.525 264.306 199.978 270.462 196.04 271.655L196.276 272.975C199.958 271.613 199.545 265.667 200.436 263.442Z" fill="black"/>
</g>
<path d="M222.315 374.428C220.454 379.257 201.563 374.428 201.563 374.428L201.613 373.944L201.987 370.202H221.892L222.271 373.937L222.315 374.428Z" fill="#548EFF"/>
<path opacity="0.1" d="M222.315 374.428C220.454 379.258 201.563 374.428 201.563 374.428L201.613 373.944C202.519 373.944 216.186 373.48 222.29 373.944L222.315 374.428Z" fill="black"/>
<path d="M201.563 374.428C201.563 374.428 198.176 375.635 192.923 395.922C187.67 416.208 185.809 442.419 185.809 442.419C185.809 442.419 182.855 449.551 195.464 450.028C195.464 450.028 194.449 454.738 201.563 454.015C208.678 453.292 207.654 453.299 207.654 453.299C207.654 453.299 212.227 449.193 214.261 449.916C216.294 450.639 217.564 450.884 219.765 453.538C221.965 456.191 229.001 455.11 229.085 453.06C229.141 452.054 229.141 451.042 229.085 450.035C229.085 450.035 239.842 451.004 237.809 439.892C235.775 428.78 234.082 410.543 234.082 410.543C234.082 410.543 228.577 374.919 222.305 374.435C216.033 373.951 201.563 374.428 201.563 374.428Z" fill="#548EFF"/>
<path opacity="0.1" d="M199.297 388.449L195.312 450.043L195.65 450.088L199.635 388.493L199.297 388.449Z" fill="black"/>
<path opacity="0.1" d="M207.647 388.403L207.472 453.255L207.812 453.257L207.987 388.404L207.647 388.403Z" fill="black"/>
<path opacity="0.1" d="M218.277 388.39L217.938 388.408L219.636 453.504L219.975 453.486L218.277 388.39Z" fill="black"/>
<path opacity="0.1" d="M228.922 450.035C228.331 412.937 223.9 387.54 223.846 387.316L224.176 387.196C224.22 387.449 228.676 412.895 229.262 450.056L228.922 450.035Z" fill="black"/>
<path opacity="0.1" d="M202.154 378.05C202.154 378.05 201.563 378.534 202.154 380.858V378.05Z" fill="black"/>
<path opacity="0.1" d="M203.853 378.05C203.853 378.05 202.243 379.496 203.853 381.918V378.05Z" fill="black"/>
<path opacity="0.1" d="M218.928 378.05C218.928 378.05 221.129 381.068 220.622 381.918L218.928 378.05Z" fill="black"/>
<path opacity="0.1" d="M220.7 377.327C220.7 377.327 221.045 380.949 222.315 381.917L220.7 377.327Z" fill="black"/>
<g opacity="0.5">
<path opacity="0.5" d="M310.609 371.536C310.609 371.536 318.919 366.819 322.513 372.575C326.107 378.331 320.052 385.337 320.052 385.337L317.511 392.567L311.535 391.633L310.126 381.637L310.609 371.536Z" fill="#548EFF"/>
<path opacity="0.1" d="M320.052 385.302L317.511 392.532L311.535 391.626L310.126 381.637L310.619 371.536L310.752 371.466C311.805 370.912 318.919 367.374 322.321 372.245C322.392 372.338 322.46 372.437 322.523 372.54C326.107 378.268 320.052 385.302 320.052 385.302Z" fill="black"/>
<path opacity="0.1" d="M320.052 385.302L317.511 392.532L311.535 391.626L310.126 381.638L310.619 371.537L310.752 371.466C311.781 379.504 314.528 382.894 314.991 383.399L315.06 383.47L316.748 383.273C320.032 380.69 321.765 374.548 322.321 372.224C322.392 372.317 322.46 372.416 322.523 372.519C326.107 378.268 320.052 385.302 320.052 385.302Z" fill="black"/>
<path opacity="0.5" d="M334.566 412.832C334.566 412.832 332.734 446.091 333.231 450.106C333.729 454.121 332.173 454.423 332.173 454.423C332.173 454.423 325.546 456.529 324.296 455.125C323.045 453.721 320.913 453.447 320.913 453.447C320.913 453.447 315.99 455.054 313.794 453.854C311.598 452.654 307.945 453.152 307.945 453.152C307.945 453.152 305.129 455.567 304.351 455.061C303.573 454.556 302.589 454.76 300.334 453.861C298.079 452.963 296.809 452.148 298.005 446.624C299.202 441.1 298.153 423.614 298.079 421.501C298.005 419.388 297.306 414.271 296.317 408.164C295.327 402.057 298.005 403.342 298.005 403.342C304.282 398.723 301.673 389.675 300.688 385.66C299.704 381.644 301.25 381.448 302.023 381.448C302.796 381.448 305.759 377.833 305.759 377.833L306.961 376.295L310.624 371.606C311.534 380.388 314.488 384.073 314.981 384.621L315.05 384.698L316.738 384.494C320.825 381.286 322.513 372.561 322.513 372.561C323.006 373.754 324.104 375.116 325.329 376.38C326.934 377.998 328.606 379.475 330.336 380.802C333.29 383.315 331.114 385.828 331.114 385.828C327.52 403.307 332.591 404.079 332.591 404.079C336.328 404.865 334.566 412.832 334.566 412.832Z" fill="#548EFF"/>
<path opacity="0.1" d="M306.872 381.483C306.872 381.483 305.814 382.29 305.814 383.189L306.872 381.483Z" fill="black"/>
<path opacity="0.1" d="M307.507 383.189C307.507 383.189 306.099 385.295 306.345 385.905L307.507 383.189Z" fill="black"/>
<path opacity="0.1" d="M307.507 385.912C307.507 385.912 306.449 387.52 306.872 388.425L307.507 385.912Z" fill="black"/>
<path opacity="0.1" d="M314.557 385.828L310.126 391.928C309.964 385.147 307.665 379.721 306.532 377.433L310.195 372.744C311.091 381.595 314.07 385.28 314.557 385.828Z" fill="black"/>
<path opacity="0.5" d="M314.981 384.62L310.55 390.727C310.392 383.94 308.088 378.521 306.961 376.225L310.624 371.536C311.535 380.388 314.489 384.073 314.981 384.62Z" fill="#548EFF"/>
<path opacity="0.1" d="M325.753 377.566C323.981 381.511 320.687 391.928 320.687 391.928L317.162 385.701C321.248 382.486 322.937 373.768 322.937 373.768C323.429 374.933 324.527 376.295 325.753 377.566Z" fill="black"/>
<path opacity="0.5" d="M325.319 376.359C323.552 380.311 320.253 390.728 320.253 390.728L316.738 384.508C320.825 381.3 322.513 372.575 322.513 372.575C323.006 373.733 324.103 375.095 325.319 376.359Z" fill="#548EFF"/>
<path opacity="0.1" d="M322.73 440.763C322.73 440.763 321.977 449.889 321.543 450.408L322.73 440.763Z" fill="black"/>
<path opacity="0.1" d="M328.928 442.371C328.928 442.371 329.775 448.899 329.421 450.408L328.928 442.371Z" fill="black"/>
<path opacity="0.1" d="M310.889 442.77C310.889 442.77 310.116 448.898 310.889 449.6V442.77Z" fill="black"/>
<path opacity="0.1" d="M306.316 441.865C306.316 441.865 305.676 449.102 305.824 450.408L306.316 441.865Z" fill="black"/>
<path opacity="0.1" d="M329.987 406.599C329.987 406.599 328.017 408.81 328.155 409.406L329.987 406.599Z" fill="black"/>
<path opacity="0.1" d="M331.395 408.01C331.395 408.01 327.624 412.53 329.509 412.025C331.395 411.52 331.395 408.01 331.395 408.01Z" fill="black"/>
</g>
<path d="M122.481 278.514L122.505 278.464L122.461 278.415L122.195 278.163L122.249 278.219C122.059 278.062 121.834 278.012 121.619 278.079C121.404 278.147 121.214 278.327 121.088 278.584L120.979 278.801L114.997 291.071L113.954 293.254C110.798 291.9 105.673 297.6 103.078 300.871C102.916 301.074 102.763 301.264 102.625 301.446C102.418 300.786 102.295 300.365 102.295 300.365C102.167 302.373 97.1949 305.384 96.033 306.479C95.5052 306.934 94.9134 307.217 94.3 307.308C94.4674 299.677 90.327 291.647 90.327 291.647L80.2096 273.291C79.8374 269.971 80.1987 266.569 81.2435 263.555C81.3272 263.316 81.4109 263.078 81.5044 262.853H81.5537C81.1709 264.395 80.9567 266.012 80.9186 267.647C80.9432 268.89 81.7506 274.912 82.8879 274.667C83.0007 274.683 83.1145 274.655 83.2169 274.586C83.3193 274.517 83.4064 274.409 83.4688 274.274C84.3747 272.772 84.4535 270.216 84.4092 267.851C84.3935 268.546 84.3392 269.239 84.2467 269.922C84.3206 267.956 84.163 265.878 84.163 264.397C84.163 263.808 84.163 263.225 84.1926 262.635H84.3156C84.3156 262.86 84.3156 263.099 84.3156 263.337C84.3156 263.092 84.3156 262.853 84.3156 262.635H84.4436C86.713 262.043 88.8393 260.637 90.6223 258.55C91.0626 258.525 91.4948 258.374 91.8938 258.108C92.2928 257.842 92.6506 257.465 92.9461 256.999C93.0541 257.512 93.0705 258.055 92.994 258.58C92.9175 259.105 92.7504 259.594 92.5079 260.003C93.8619 259.912 95.009 258.41 95.5308 256.648C95.978 254.848 96.1098 252.921 95.9149 251.032C95.7202 249.143 95.6231 247.235 95.6244 245.325C95.7177 244.294 95.7572 243.255 95.7425 242.216C95.7208 241.898 95.6813 241.584 95.6244 241.275H95.6638C95.7935 241.279 95.9225 241.246 96.0433 241.179C96.1641 241.111 96.2744 241.01 96.3678 240.882C96.929 240.264 97.1112 239.057 97.254 238.13C97.6426 235.998 97.8183 233.798 97.7759 231.595C97.7463 232.262 97.6872 232.936 97.6183 233.603C97.7414 231.076 97.4952 228.619 96.3235 226.787C95.5161 225.53 94.3886 224.793 93.3055 224.056C92.9182 223.859 92.5772 223.511 92.3209 223.052C92.1294 222.512 92.0251 221.917 92.0156 221.311C91.6365 217.619 89.1995 215.05 86.7723 213.59C83.651 211.653 79.8798 210.824 76.9012 213.127C75.4242 214.243 74.2919 215.991 72.9626 217.416C71.2985 219.22 69.3784 220.483 67.6011 222.056C65.8238 223.628 64.1549 225.621 63.2834 228.331C61.9788 232.543 62.9585 237.316 63.121 241.886C63.3819 249.081 61.3043 256.627 57.1884 260.838C56.6952 261.27 56.2545 261.812 55.8838 262.446C55.7029 262.766 55.5955 263.159 55.5761 263.569C55.5568 263.98 55.6263 264.389 55.7755 264.741C55.9872 265.134 56.3219 265.359 56.5533 265.731C57.021 266.489 56.9275 267.647 56.7453 268.616C56.1475 271.785 54.9562 274.663 53.2991 276.941C53.3729 277.685 54.0179 277.98 54.5446 278.092C55.9384 278.385 57.3453 278.53 58.754 278.528H59.3596C59.2956 278.759 59.2267 279.005 59.1577 279.265C58.3946 282.129 57.4051 286.537 57.7349 289.232C58.2272 293.486 59.8027 312.937 59.0248 316.349C58.2469 319.76 60.2753 344.497 60.2753 344.497C60.2753 344.497 60.5461 346.406 61.0138 349.256C59.7978 353.342 58.4094 357.876 57.7152 359.694C56.317 363.337 57.0063 381.939 61.8262 390.208C61.8262 390.208 63.7955 394.223 63.3031 395.676C62.8108 397.129 63.3918 399.691 63.3918 399.691L64.1549 423.761C64.1385 426.221 64.0202 428.678 63.8004 431.118C61.7425 434.747 58.5719 440.04 57.0801 440.903C54.7711 442.244 37.5495 472.027 37.5495 472.027C37.5495 472.027 37.6874 472.385 37.9582 472.968L37.4658 473.768L34.1623 479.229L33.9014 479.658C33.2811 479.489 29.1504 478.422 25.8765 478.085H25.5515V478.001C24.4041 477.814 23.2438 477.859 22.1052 478.134C21.8898 478.191 21.6911 478.338 21.5341 478.556C20.4166 480.507 19.8159 511.14 19.8159 511.14C19.8159 511.14 21.0073 526.478 24.7392 527.334C24.9294 527.428 25.1287 527.481 25.33 527.489H25.4924C28.151 527.208 29.372 525.039 29.9234 523.551C30.0865 523.106 30.2105 522.635 30.2926 522.147C30.2926 522.147 29.8594 519.416 31.0213 515.647C32.1832 511.877 34.3543 505.244 34.3543 505.244C34.3543 505.244 38.2929 499.34 37.5889 496.476C37.6972 496.245 37.8252 495.992 37.9631 495.704C39.4401 492.7 42.4334 486.768 44.8557 482.809C45.0132 482.543 45.1707 482.297 45.348 482.051C46.2291 482.582 47.1513 482.961 48.0952 483.181C48.0952 483.181 51.7975 481.118 53.1711 476.499C53.7569 474.533 56.0561 471.052 58.503 467.703L58.4242 468.595L58.3405 497.894C59.1362 498.674 59.9838 499.339 60.871 499.881V500.583C60.8884 504.758 60.7107 508.929 60.3393 513.071L60.2655 513.723C59.9602 513.415 59.6944 513.309 59.527 513.548C58.7688 514.643 58.2962 521.634 58.2519 524.856C58.2519 524.962 58.2519 525.067 58.2519 525.179C58.1288 528.394 56.8438 533.069 60.7135 533.308C63.6084 533.483 76.0889 533.75 82.7648 533.89C86.3615 533.987 89.8606 532.219 92.6113 528.914C94.7333 526.323 96.0182 523.242 93.1283 520.975C92.951 520.834 92.764 520.701 92.5572 520.567L86.1569 519.164L75.2224 511.203C75.2224 511.203 75.1584 506.388 73.8439 507.188C73.4533 507.31 73.0792 507.521 72.7361 507.813C72.6721 507.637 72.6032 507.448 72.5392 507.251C71.6486 504.735 71.1864 501.955 71.1902 499.137C71.1902 498.884 71.1902 498.624 71.2148 498.365C71.535 497.949 71.8376 497.506 72.1207 497.038C72.1207 497.038 72.037 486.095 72.8986 484.031C73.7602 481.967 76.4286 461.049 76.4286 461.049C76.4286 461.049 76.5123 457.16 78.2354 454.851C79.9585 452.541 79.353 445.852 79.353 445.852C79.353 445.852 81.7654 444.027 82.5383 438.074C83.3113 432.122 85.8123 419.121 85.8123 419.121C85.8123 419.121 90.9768 399.909 90.6371 387.758C90.2974 375.607 91.1294 369.276 91.1294 369.276L92.2027 341.029V340.594C92.631 341.057 92.9215 341.436 92.9215 341.436C92.9215 341.436 92.9215 341.324 92.9215 341.128C93.079 341.317 93.1677 341.436 93.1677 341.436C93.1677 341.436 93.7191 328.619 93.532 323.537C96.545 322.077 101.134 319.676 101.409 318.455C101.793 316.636 106.963 310.888 106.963 310.888C106.851 310.862 106.744 310.804 106.648 310.719C106.81 310.614 106.977 310.487 107.14 310.354C110.527 307.771 116.819 300.218 115.761 295.613L122.653 281.511C122.869 281.058 122.97 280.514 122.938 279.969C122.907 279.423 122.745 278.91 122.481 278.514Z" fill="url(#paint1_linear)"/>
<path d="M106.446 312.572C105.943 313.022 105.382 313.325 104.797 313.464C102.645 313.555 100.858 305.251 100.858 305.251C100.858 305.251 101.468 304.366 102.443 303.145C105.328 299.488 111.379 292.735 114.215 296.511C117.415 300.73 110.173 309.715 106.446 312.572Z" fill="#ECB4B6"/>
<path d="M73.7407 510.614L65.7995 522.835C65.7995 522.835 58.454 522.954 59.8916 517.177C60.1788 515.925 60.3832 514.637 60.5021 513.33C60.8639 509.228 61.0366 505.097 61.019 500.962C61.019 498.252 60.9895 496.35 60.9895 496.35C60.9895 496.35 72.5542 489.127 71.3726 496.652C71.2256 497.593 71.1465 498.552 71.1363 499.516C71.1317 502.305 71.5835 505.057 72.4558 507.553C72.8127 508.631 73.2431 509.656 73.7407 510.614Z" fill="#ECB4B6"/>
<path opacity="0.1" d="M73.7407 510.614L65.7995 522.835C65.7995 522.835 58.454 522.954 59.8916 517.177C60.1788 515.925 60.3832 514.637 60.5021 513.33C61.5507 514.489 63.0572 517.9 63.0572 517.9C63.0572 517.9 68.1233 520.006 69.5166 513.688C70.2944 510.179 71.5253 508.403 72.4705 507.553C72.8228 508.63 73.2482 509.655 73.7407 510.614Z" fill="black"/>
<path d="M92.1637 529.019C89.4712 532.289 86.0307 534.038 82.4944 533.932C75.9464 533.799 63.7121 533.525 60.8714 533.357C57.0706 533.118 58.331 528.492 58.4541 525.306C58.4541 525.193 58.4541 525.095 58.4541 524.99C58.4984 521.796 58.9464 514.875 59.7046 513.794C60.4628 512.713 63.0573 518.609 63.0573 518.609C63.0573 518.609 68.1234 520.715 69.5166 514.397C70.9099 508.08 73.7408 507.469 73.7408 507.469C75.0258 506.676 75.0898 511.442 75.0898 511.442L85.8127 519.325L92.1046 520.729C92.3064 520.862 92.4886 520.996 92.6609 521.129C95.5066 523.403 94.2462 526.45 92.1637 529.019Z" fill="#C17174"/>
<path opacity="0.25" d="M72.3524 516.868C72.608 516.868 72.8152 516.573 72.8152 516.208C72.8152 515.844 72.608 515.548 72.3524 515.548C72.0968 515.548 71.8896 515.844 71.8896 516.208C71.8896 516.573 72.0968 516.868 72.3524 516.868Z" fill="white"/>
<path opacity="0.25" d="M76.7043 519.943C76.9598 519.943 77.1671 519.648 77.1671 519.283C77.1671 518.919 76.9598 518.624 76.7043 518.624C76.4487 518.624 76.2415 518.919 76.2415 519.283C76.2415 519.648 76.4487 519.943 76.7043 519.943Z" fill="white"/>
<path opacity="0.25" d="M78.9398 521.368C79.1954 521.368 79.4026 521.072 79.4026 520.708C79.4026 520.343 79.1954 520.048 78.9398 520.048C78.6843 520.048 78.4771 520.343 78.4771 520.708C78.4771 521.072 78.6843 521.368 78.9398 521.368Z" fill="white"/>
<path opacity="0.25" d="M83.5822 523.909C83.8378 523.909 84.045 523.613 84.045 523.249C84.045 522.884 83.8378 522.589 83.5822 522.589C83.3266 522.589 83.1194 522.884 83.1194 523.249C83.1194 523.613 83.3266 523.909 83.5822 523.909Z" fill="white"/>
<path opacity="0.25" d="M81.2191 522.827C81.4747 522.827 81.6819 522.532 81.6819 522.168C81.6819 521.803 81.4747 521.508 81.2191 521.508C80.9635 521.508 80.7563 521.803 80.7563 522.168C80.7563 522.532 80.9635 522.827 81.2191 522.827Z" fill="white"/>
<path d="M92.1637 529.018C89.4712 532.289 86.0307 534.037 82.4944 533.932C75.9464 533.799 63.7121 533.525 60.8714 533.356C57.0706 533.118 58.331 528.492 58.4541 525.305L82.3171 527.411C82.3171 527.411 92.0898 525.305 92.656 521.149C95.5066 523.403 94.2462 526.449 92.1637 529.018Z" fill="#C17174"/>
<path opacity="0.25" d="M92.1637 529.018C89.4712 532.289 86.0307 534.037 82.4944 533.932C75.9464 533.799 63.7121 533.525 60.8714 533.356C57.0706 533.118 58.331 528.492 58.4541 525.305L82.3171 527.411C82.3171 527.411 92.0898 525.305 92.656 521.149C95.5066 523.403 94.2462 526.449 92.1637 529.018Z" fill="white"/>
<path d="M47.7407 479.918C46.8627 480.939 46.0608 482.087 45.348 483.343C42.9799 487.26 40.0506 493.171 38.5982 496.105C38.037 497.256 37.6973 497.979 37.6973 497.979L34.5267 497.312C34.5267 497.312 31.1099 489.85 31.1542 489.675C31.1985 489.499 33.862 481.483 33.862 481.483L34.891 479.763L38.1354 474.358L39.6124 471.916C39.6124 471.916 50.6011 476.97 47.7407 479.918Z" fill="#ECB4B6"/>
<path opacity="0.1" d="M38.5982 496.118C38.037 497.269 37.6973 497.992 37.6973 497.992L34.5267 497.325C34.5267 497.325 31.1099 489.864 31.1542 489.688C31.1985 489.513 33.862 481.482 33.862 481.482L34.891 479.763L35.2258 479.854H36.0332C33.2023 484.066 36.24 493.331 36.24 493.331C36.24 493.331 37.5496 493.507 38.5982 496.118Z" fill="black"/>
<path d="M35.0588 505.552C35.0588 505.552 32.9467 512.052 31.8045 515.787C30.6623 519.521 31.0857 522.224 31.0857 522.224C31.0053 522.71 30.8847 523.181 30.7263 523.628C30.3215 524.775 29.7055 525.745 28.9441 526.432C28.1827 527.12 27.3047 527.499 26.4037 527.53H26.1969C22.3469 527.39 21.126 511.456 21.126 511.456C21.126 511.456 21.7168 481.124 22.8147 479.166C22.9656 478.948 23.1598 478.801 23.371 478.745C24.4913 478.468 25.6338 478.423 26.7631 478.611C30.2439 478.969 34.7191 480.191 34.7191 480.191H35.5216C32.6907 484.402 35.7284 493.675 35.7284 493.675C35.7284 493.675 37.0823 493.851 38.1359 496.56C39.1894 499.27 35.0588 505.552 35.0588 505.552Z" fill="#C17174"/>
<path opacity="0.25" d="M30.4105 497.185C30.6661 497.185 30.8733 496.89 30.8733 496.526C30.8733 496.161 30.6661 495.866 30.4105 495.866C30.155 495.866 29.9478 496.161 29.9478 496.526C29.9478 496.89 30.155 497.185 30.4105 497.185Z" fill="white"/>
<path opacity="0.25" d="M30.1796 502.443C30.4352 502.443 30.6424 502.147 30.6424 501.783C30.6424 501.418 30.4352 501.123 30.1796 501.123C29.924 501.123 29.7168 501.418 29.7168 501.783C29.7168 502.147 29.924 502.443 30.1796 502.443Z" fill="white"/>
<path d="M30.4158 523.495C30.011 524.643 29.3949 525.612 28.6336 526.3C27.8722 526.987 26.9941 527.367 26.0932 527.398H25.8913C22.0413 527.257 20.8154 511.323 20.8154 511.323C20.8154 511.323 21.4062 480.991 22.5041 479.033C22.6551 478.815 22.8492 478.668 23.0604 478.612C24.1808 478.335 25.3232 478.29 26.4526 478.479C26.3886 483.933 26.2064 501.166 26.4526 502.878C26.6987 504.591 28.8797 518.925 30.4158 523.495Z" fill="#C17174"/>
<path opacity="0.25" d="M30.4158 523.495C30.011 524.643 29.3949 525.612 28.6336 526.3C27.8722 526.987 26.9941 527.367 26.0932 527.398H25.8913C22.0413 527.257 20.8154 511.323 20.8154 511.323C20.8154 511.323 21.4062 480.991 22.5041 479.033C22.6551 478.815 22.8492 478.668 23.0604 478.612C24.1808 478.335 25.3232 478.29 26.4526 478.479C26.3886 483.933 26.2064 501.166 26.4526 502.878C26.6987 504.591 28.8797 518.925 30.4158 523.495Z" fill="white"/>
<path d="M25.8864 527.412C22.0364 527.271 20.8105 511.337 20.8105 511.337C20.8105 511.337 21.4013 481.006 22.4992 479.047C22.6502 478.829 22.8443 478.682 23.0556 478.626C23.863 480.339 24.5719 484.129 23.9319 492.468C22.7306 508.269 24.1781 509.266 24.1781 509.266C24.1781 509.266 25.9849 522.695 25.8864 527.412Z" fill="#C17174"/>
<path opacity="0.1" d="M25.8864 527.412C22.0364 527.271 20.8105 511.337 20.8105 511.337C20.8105 511.337 21.4013 481.006 22.4992 479.047C22.6502 478.829 22.8443 478.682 23.0556 478.626C23.863 480.339 24.5719 484.129 23.9319 492.468C22.7306 508.269 24.1781 509.266 24.1781 509.266C24.1781 509.266 25.9849 522.695 25.8864 527.412Z" fill="black"/>
<path opacity="0.1" d="M106.446 312.572C105.943 313.021 105.382 313.324 104.797 313.463C102.645 313.554 100.858 305.25 100.858 305.25C100.858 305.25 101.468 304.366 102.443 303.145C103.147 305.391 105.087 311.449 106.446 312.572Z" fill="black"/>
<path d="M92.641 309.582C92.641 309.582 94.4133 309.764 95.5506 308.683C96.6879 307.602 101.567 304.619 101.695 302.632C101.695 302.632 104.605 312.74 106.254 313.105C106.254 313.105 101.188 318.791 100.809 320.595C100.43 322.399 90.5486 326.829 90.5486 326.829L92.641 309.582Z" fill="#FF748E"/>
<path opacity="0.1" d="M92.641 309.582C92.641 309.582 94.4133 309.764 95.5506 308.683C96.6879 307.602 101.567 304.619 101.695 302.632C101.695 302.632 104.605 312.74 106.254 313.105C106.254 313.105 101.188 318.791 100.809 320.595C100.43 322.399 90.5486 326.829 90.5486 326.829L92.641 309.582Z" fill="black"/>
<path opacity="0.1" d="M47.7411 479.918C46.863 480.939 46.0612 482.087 45.3484 483.343C41.5279 481.062 39.0663 476.401 38.1309 474.358L39.6078 471.916C39.6078 471.916 50.6015 476.97 47.7411 479.918Z" fill="black"/>
<path d="M65.8093 428.731C65.8093 428.731 59.6159 440.531 57.3512 441.857C55.0865 443.184 38.2046 472.673 38.2046 472.673C38.2046 472.673 41.833 482.185 48.5041 483.743C48.5041 483.743 52.1325 481.7 53.4864 477.123C54.8403 472.547 65.4746 459.617 65.4746 459.617L65.8093 428.731Z" fill="#5E5A6B"/>
<path opacity="0.1" d="M65.8093 428.731C65.8093 428.731 59.6159 440.531 57.3512 441.857C55.0865 443.184 38.2046 472.673 38.2046 472.673C38.2046 472.673 41.833 482.185 48.5041 483.743C48.5041 483.743 52.1325 481.7 53.4864 477.123C54.8403 472.547 65.4746 459.617 65.4746 459.617L65.8093 428.731Z" fill="black"/>
<path opacity="0.1" d="M47.0469 468.216C48.9208 468.496 50.8101 468.496 52.684 468.216C56.017 467.76 53.5062 470.652 47.0469 468.216Z" fill="black"/>
<path opacity="0.1" d="M45.5254 471.283C45.5254 471.283 49.9563 474.891 51.6696 473.087C53.3829 471.283 50.0203 474.828 45.5254 471.283Z" fill="black"/>
<path opacity="0.1" d="M71.3822 496.651C71.2352 497.592 71.156 498.552 71.1459 499.515C67.7242 503.945 63.6034 502.576 61.0286 500.961C61.0286 498.252 60.999 496.35 60.999 496.35C60.999 496.35 72.5638 489.098 71.3822 496.651Z" fill="black"/>
<path d="M91.8972 339.618L91.7741 342.946L90.7205 370.918C90.7205 370.918 89.8737 377.18 90.2282 389.211C90.5826 401.243 85.4821 420.308 85.4821 420.308C85.4821 420.308 83.0205 433.189 82.2722 439.085C81.5238 444.981 79.1508 446.806 79.1508 446.806C79.1508 446.806 79.7416 453.426 78.0529 455.714C76.3642 458.003 76.2806 461.849 76.2806 461.849C76.2806 461.849 73.6614 482.557 72.8343 484.606C72.0072 486.656 72.0712 497.487 72.0712 497.487C66.5866 506.753 58.5666 498.33 58.5666 498.33L58.6503 469.318C58.6503 469.318 60.9298 442.595 62.6185 438.86C64.3072 435.126 64.3072 424.898 64.3072 424.898L63.5539 401.032C63.5539 401.032 62.9533 398.505 63.4702 397.059C63.9871 395.613 62.0277 391.647 62.0277 391.647C57.2964 383.455 56.6121 365.036 57.9955 361.463C59.379 357.89 63.4702 343.409 63.4702 343.409L69.1172 338.713L79.3231 339.141L91.8972 339.618Z" fill="#5E5A6B"/>
<path opacity="0.1" d="M67.8818 481.483C67.8818 481.483 69.2161 488.074 70.2893 488.797C71.3626 489.52 67.8818 481.483 67.8818 481.483Z" fill="black"/>
<path opacity="0.1" d="M69.7183 459.547C69.7183 459.547 73.1646 463.436 74.6415 463.429C76.1185 463.422 69.7183 459.547 69.7183 459.547Z" fill="black"/>
<path d="M90.5487 296.581V304.528L86.871 302.267L83.2032 300.014L75.2176 288.818C75.2176 288.818 68.9011 282.971 65.5237 277.643C63.5938 274.603 62.6239 271.732 64.3224 270.216C65.1456 269.448 65.8897 268.519 66.533 267.457C68.2304 264.604 69.7062 261.498 70.9344 258.192C70.9885 258.058 71.0427 257.925 71.0919 257.792C72.7363 253.489 73.8243 249.817 73.8243 249.817C73.8243 249.817 78.4522 251.923 81.4259 254.928C81.6671 255.166 81.8936 255.412 82.1102 255.665C83.7693 257.602 84.5965 259.876 83.0653 262.095C82.672 262.674 82.3084 263.294 81.9773 263.948C81.73 264.434 81.5032 264.94 81.2979 265.464C81.2092 265.703 81.1206 265.934 81.0418 266.166C80.0174 269.154 79.6633 272.519 80.0277 275.804L90.5487 296.581Z" fill="#ECB4B6"/>
<path d="M89.8743 239.906C90.0663 240.383 90.3322 240.79 90.5094 241.275C90.808 242.343 90.9048 243.505 90.7901 244.644C90.6941 246.444 90.777 248.254 91.0362 250.021C91.2972 251.607 91.7846 253.138 91.8239 254.766C91.8781 257.061 91.0411 259.188 90.2337 261.175C90.6724 261.156 91.1038 261.01 91.5016 260.745C91.8994 260.481 92.2553 260.104 92.5477 259.638C92.6546 260.144 92.6719 260.68 92.598 261.198C92.5241 261.716 92.3613 262.2 92.1243 262.607C93.4486 262.516 94.5859 261.027 95.0782 259.287C95.5275 257.488 95.6577 255.559 95.4573 253.671C95.2645 251.8 95.169 249.911 95.1718 248.02C95.2633 246.999 95.3012 245.968 95.285 244.939C95.1619 242.896 94.3003 241.12 93.4338 239.463L91.7206 236.108C91.6015 235.834 91.431 235.613 91.2282 235.469C89.6085 234.487 89.4214 238.74 89.8743 239.906Z" fill="#464353"/>
<path opacity="0.1" d="M83.0948 262.095C82.7015 262.675 82.3378 263.294 82.0068 263.948C81.7595 264.434 81.5326 264.94 81.3273 265.464C81.2387 265.703 81.1501 265.935 81.0713 266.166C79.1196 266.01 77.2159 265.242 75.4961 263.918C73.7763 262.593 72.2826 260.743 71.1214 258.501C71.0673 258.396 71.0131 258.29 70.9639 258.178C71.018 258.045 71.0722 257.911 71.1214 257.778C72.7658 253.475 73.8538 249.804 73.8538 249.804C73.8538 249.804 78.4817 251.91 81.4553 254.914C81.6966 255.153 81.9231 255.398 82.1397 255.651C83.7791 257.602 84.6062 259.849 83.0948 262.095Z" fill="black"/>
<path d="M95.0979 246.532C95.0986 250.964 94.01 255.257 92.0213 258.663C90.0326 262.069 87.2695 264.374 84.2125 265.176C83.4166 265.382 82.6091 265.486 81.8001 265.485H81.7411C81.5983 265.485 81.4506 265.485 81.3078 265.485C78.7019 265.347 76.1819 264.12 74.0616 261.955C71.9414 259.791 70.3144 256.785 69.3834 253.312C68.4524 249.839 68.2584 246.052 68.8255 242.423C69.3927 238.794 70.696 235.483 72.5731 232.902C74.4503 230.322 76.8184 228.585 79.3826 227.909C81.9468 227.233 84.5939 227.647 86.9943 229.1C89.3947 230.552 91.4424 232.98 92.8824 236.08C94.3224 239.179 95.0912 242.814 95.0929 246.532H95.0979Z" fill="#ECB4B6"/>
<path opacity="0.1" d="M83.543 293.395C83.543 293.395 90.2386 298.779 88.5253 294.237L79.7866 275.818L89.7069 293.991C89.7069 293.991 96.0382 306.395 92.5772 314.938C92.5772 314.938 92.0849 322.041 92.6609 323.726C93.2369 325.411 92.4935 343.381 92.4935 343.381C92.4935 343.381 90.1254 340.25 88.8601 340.847C87.5948 341.443 78.6641 342.51 78.6641 342.51L83.543 293.395Z" fill="black"/>
<path opacity="0.1" d="M91.8978 339.618L91.7747 342.946C90.9723 342.117 89.8547 341.191 89.1113 341.542C87.846 342.146 78.9004 343.234 78.9004 343.234L79.309 339.085L91.8978 339.618Z" fill="black"/>
<path d="M83.7941 293.395C83.7941 293.395 90.4947 298.779 88.7765 294.237L80.0377 275.818L89.9581 293.991C89.9581 293.991 96.2894 306.395 92.8283 314.938C92.8283 314.938 92.336 322.041 92.912 323.726C93.488 325.411 92.7446 343.381 92.7446 343.381C92.7446 343.381 90.3815 340.25 89.1162 340.847C87.8509 341.443 78.9004 342.538 78.9004 342.538L83.7941 293.395Z" fill="#464353"/>
<path opacity="0.1" d="M87.3731 302.626C86.9842 308.417 85.3152 315.303 85.3152 315.303C85.3152 315.303 84.1336 332.395 82.6025 337.478C81.0714 342.56 81.7557 349.516 80.9138 362.397C80.6086 367.037 79.5599 370.224 78.1469 372.372C75.8232 375.881 72.5049 376.646 69.8857 376.429L69.2654 376.359C65.0412 375.762 60.9894 346.75 60.9894 346.75C60.9894 346.75 59.0496 322.07 59.8078 318.672C60.566 315.275 59.0594 296.062 58.5523 291.851C58.2274 289.176 59.1973 284.831 59.9456 281.981C60.3838 280.339 60.7432 279.173 60.7432 279.173C60.7432 279.173 62.1808 272.673 64.544 269.304C64.8698 268.827 65.2595 268.448 65.69 268.19C66.1205 267.932 66.5829 267.8 67.0499 267.802C68.1609 267.866 69.2399 268.351 70.1762 269.206C70.2141 269.237 70.2503 269.272 70.2845 269.311C70.2845 269.311 85.6549 291.703 87.0876 296.877C87.4864 298.33 87.5258 300.393 87.3731 302.626Z" fill="black"/>
<path d="M86.8708 302.267C86.4769 308.052 84.8079 314.938 84.8079 314.938C84.8079 314.938 83.6263 332.037 82.105 337.091C80.5837 342.145 81.2631 349.13 80.4163 362.011C80.1111 366.643 79.0624 369.83 77.6495 371.985C75.3257 375.495 72.0074 376.253 69.3882 376.043L68.7679 375.972C64.5437 375.369 60.4919 346.357 60.4919 346.357C60.4919 346.357 58.5521 321.683 59.3103 318.314C60.0685 314.945 58.5521 295.683 58.045 291.464C57.7201 288.797 58.69 284.445 59.4383 281.595C59.8765 279.952 60.2359 278.822 60.2359 278.822C60.2359 278.822 61.6735 272.322 64.0366 268.953C64.3615 268.475 64.7511 268.095 65.1819 267.838C65.6127 267.581 66.0756 267.452 66.5426 267.458C67.6544 267.515 68.7347 268 69.6688 268.862L69.7772 268.96C69.7772 268.96 85.1476 291.352 86.5803 296.526C86.979 297.965 87.0332 300.035 86.8708 302.267Z" fill="#FF748E"/>
<path opacity="0.1" d="M69.6543 390.391C69.6543 390.391 66.1686 394.813 64.9673 394.602C63.766 394.392 69.6543 390.391 69.6543 390.391Z" fill="black"/>
<path opacity="0.1" d="M70.5797 394.638C70.5797 394.638 66.907 397.066 65.8091 397.446C64.7112 397.825 69.1618 394.013 70.5797 394.638Z" fill="black"/>
<path opacity="0.1" d="M84.7886 328.183C84.7886 328.183 90.2337 328.275 91.0559 330.71C91.8781 333.146 86.5413 327.187 84.7886 328.183Z" fill="black"/>
<path opacity="0.1" d="M84.0256 332.423C84.0256 332.423 88.2055 333.686 89.4708 335.132C90.736 336.578 84.0256 332.423 84.0256 332.423Z" fill="black"/>
<path opacity="0.1" d="M76.9999 317.71C76.9999 317.71 76.5076 342.173 74.6269 345.339C72.7462 348.505 76.9999 317.71 76.9999 317.71Z" fill="black"/>
<path opacity="0.1" d="M72.3128 386.867C72.3128 386.867 68.8173 408.445 75.828 409.778C82.8388 411.112 80.6725 385.21 80.6725 385.21L72.3128 386.867Z" fill="black"/>
<path d="M72.057 386.508C72.057 386.508 68.5812 408.086 75.5772 409.434C82.5731 410.782 80.4168 384.866 80.4168 384.866L72.057 386.508Z" fill="#ECB4B6"/>
<path opacity="0.1" d="M95.0144 244.441C94.8194 244.029 94.6544 243.589 94.5221 243.128C93.5916 240.363 91.1989 241.725 89.4462 243.037L88.5108 244.757C88.0839 245.471 87.7247 246.261 87.4424 247.109C87.2627 247.797 87.1131 248.5 86.9944 249.214C86.7532 250.436 86.3987 251.601 86.0787 252.794C85.0173 256.762 84.388 260.938 84.2127 265.177C83.4168 265.383 82.6094 265.486 81.8004 265.486H81.7413V265.401C81.8299 264.924 81.9037 264.44 81.9727 263.955C82.3392 261.224 82.3841 258.425 82.1056 255.672C82.1056 255.609 82.1056 255.553 82.1056 255.49C82.0416 254.879 81.9579 254.261 81.9234 253.651C81.761 254.072 81.6034 254.5 81.4311 254.935C80.3726 257.743 79.2599 260.551 77.2611 261.779C76.45 262.233 75.5949 262.508 74.7256 262.594C73.6525 262.675 72.589 262.927 71.555 263.345C71.2025 263.482 70.8837 263.757 70.6344 264.138C70.3561 264.725 70.196 265.41 70.1716 266.117C70.0649 267.051 69.9001 267.97 69.6793 268.862C68.7753 272.193 67.3626 275.195 65.5437 277.65L65.0859 278.282C64.3061 279.429 63.3761 280.348 62.3485 280.985C61.415 281.432 60.4333 281.641 59.4487 281.602C59.8869 279.96 60.2463 278.83 60.2463 278.83C60.2463 278.83 61.6839 272.33 64.0471 268.96C64.3719 268.482 64.7616 268.103 65.1923 267.846C65.6231 267.589 66.086 267.459 66.553 267.465C68.317 264.492 69.8459 261.25 71.1119 257.799C69.902 255.458 69.0861 252.752 68.7273 249.89C68.3685 247.027 68.4764 244.085 69.0428 241.292C69.6091 238.499 70.6187 235.928 71.9933 233.78C73.368 231.633 75.0708 229.964 76.9701 228.905C78.8694 227.846 80.9141 227.424 82.9461 227.672C84.9781 227.919 86.9429 228.831 88.6883 230.335C90.4338 231.839 91.9131 233.895 93.0117 236.345C94.1104 238.795 94.799 241.572 95.0243 244.462L95.0144 244.441Z" fill="black"/>
<path d="M95.8611 229.651C95.0733 228.401 93.9656 227.671 92.9071 226.948C92.5303 226.745 92.1987 226.4 91.9471 225.951C91.7634 225.415 91.6627 224.828 91.6517 224.232C91.2824 220.567 88.8897 218.033 86.5118 216.545C83.4495 214.629 79.7718 213.808 76.8326 216.082C75.4049 217.191 74.2775 218.925 72.9876 220.336C71.353 222.119 69.4723 223.368 67.7295 224.927C65.9867 226.485 64.3226 228.436 63.4955 231.146C62.2155 235.287 63.1755 240.04 63.338 244.56C63.589 251.692 61.5557 259.14 57.5187 263.358C57.0323 263.783 56.5995 264.322 56.2386 264.952C56.0621 265.27 55.9577 265.658 55.9393 266.063C55.9208 266.467 55.9891 266.871 56.1352 267.219C56.3371 267.612 56.6719 267.837 56.8934 268.202C57.3562 268.953 57.2626 270.097 57.0805 271.066C56.4973 274.195 55.3301 277.041 53.7031 279.3C53.7721 280.044 54.4022 280.332 54.9192 280.444C56.2866 280.734 57.6673 280.877 59.0498 280.872C60.1272 280.998 61.2104 280.763 62.213 280.187C63.2157 279.611 64.11 278.708 64.8248 277.552C67.2864 274.253 69.369 270.132 69.9253 265.387C69.9543 264.681 70.114 263.998 70.3881 263.408C70.641 263.033 70.9584 262.759 71.3087 262.614C73.1451 261.716 75.2473 262.158 77.0148 261.049C79.3189 259.645 80.4611 256.135 81.6673 252.92C81.7067 253.531 81.7855 254.149 81.8544 254.767C82.2059 258.07 82.0887 261.44 81.5097 264.678C81.1799 266.51 80.7023 268.335 80.7368 270.223C80.7614 271.627 81.7608 278.963 83.0753 276.766C84.3899 274.569 83.9074 269.711 83.9074 266.987C83.9089 261.889 84.5646 256.833 85.8422 252.071C86.1573 250.885 86.5167 249.712 86.7579 248.491C86.8773 247.778 87.0252 247.075 87.201 246.385C87.4869 245.539 87.8476 244.749 88.2743 244.034L89.2147 242.314C90.9673 240.987 93.36 239.639 94.2905 242.405C94.645 243.465 94.837 244.637 95.7675 243.605C96.314 242.995 96.4912 241.794 96.634 240.882C97.2199 237.056 97.7024 232.557 95.8611 229.651Z" fill="#464353"/>
<path opacity="0.1" d="M78.0437 295.922C77.6843 282.957 64.9576 280.275 61.9889 292.538C61.9648 292.62 61.945 292.705 61.9298 292.791C59.9851 301.095 60.8319 322.126 60.8319 322.126C60.8319 322.126 61.083 336.249 62.0135 340.945C62.944 345.641 65.5583 359.118 65.5583 361.301C65.5583 363.485 67.9854 371.775 69.0046 372.378C70.0237 372.982 70.5406 377.671 70.7917 378.513C71.0428 379.356 71.7764 390.313 71.7764 390.313C71.7764 390.313 81.3177 389.471 81.485 387.302C81.6524 385.133 79.373 374.54 79.373 374.54C79.373 374.54 77.6941 370.209 77.4775 366.721C77.2609 363.232 75.9414 361.645 76.2024 359.238C76.4633 356.83 75.4393 355.63 75.4393 354.064C75.4393 352.499 74.6811 348.287 74.6811 348.287C74.6811 348.287 73.0761 346.476 73.3321 344.314C73.5881 342.152 71.0526 337.814 71.7271 336.249C72.4016 334.683 72.569 330.83 72.569 330.83C72.569 330.83 73.4158 313.499 74.0066 308.803C74.5974 304.106 78.0584 296.525 78.0584 296.525C78.0584 296.525 78.0535 296.308 78.0437 295.922Z" fill="black"/>
<path opacity="0.1" d="M77.6498 371.985C75.326 375.495 72.0077 376.253 69.3886 376.042C69.0833 374.4 68.6402 372.378 67.9953 371.999C66.9712 371.395 64.549 363.091 64.549 360.929C64.549 358.767 61.9347 345.276 61.0042 340.573C60.0737 335.87 59.8226 321.76 59.8226 321.76C59.8226 321.76 58.9759 300.702 60.9205 292.419C60.9205 292.342 60.955 292.257 60.9796 292.173C63.9336 279.903 76.675 282.591 77.0344 295.556C77.0344 295.943 77.0344 296.153 77.0344 296.153C77.0344 296.153 73.5881 303.734 72.9825 308.43C72.377 313.126 71.5548 330.458 71.5548 330.458C71.5548 330.458 71.3825 334.311 70.708 335.877C70.0335 337.442 72.5641 341.78 72.313 343.942C72.0619 346.104 73.6619 347.915 73.6619 347.915C73.6619 347.915 74.4201 352.127 74.4201 353.699C74.4201 355.272 75.4343 356.465 75.1832 358.873C74.9321 361.28 76.2811 362.846 76.4978 366.334C76.6786 368.29 77.0671 370.196 77.6498 371.985Z" fill="black"/>
<path d="M77.5364 295.563C77.177 282.598 64.4503 279.917 61.4816 292.18L61.4225 292.426C59.4778 300.737 60.3246 321.767 60.3246 321.767C60.3246 321.767 60.5757 335.883 61.5062 340.58C62.4367 345.276 65.0509 358.76 65.0509 360.936C65.0509 363.112 67.4781 371.409 68.4972 372.013C69.5164 372.617 70.0333 377.313 70.2844 378.155C70.5355 378.997 71.269 389.948 71.269 389.948C71.269 389.948 80.8103 389.105 80.9777 386.943C81.1451 384.781 78.8706 374.182 78.8706 374.182C78.8706 374.182 77.1868 369.844 76.9702 366.355C76.7536 362.867 75.4046 361.301 75.6606 358.893C75.9166 356.486 74.8975 355.278 74.8975 353.713C74.8975 352.148 74.1393 347.936 74.1393 347.936C74.1393 347.936 72.5343 346.132 72.7903 343.963C73.0463 341.794 70.5108 337.463 71.1853 335.898C71.8598 334.332 72.0272 330.485 72.0272 330.485C72.0272 330.485 72.874 313.147 73.4648 308.451C74.0556 303.755 77.5167 296.174 77.5167 296.174C77.5167 296.174 77.5462 295.949 77.5364 295.563Z" fill="#FF748E"/>
<path opacity="0.1" d="M61.8657 328.906C62.1168 328.541 66.9318 320.96 68.4481 323.67C69.9645 326.379 61.8657 328.906 61.8657 328.906Z" fill="black"/>
<path opacity="0.1" d="M62.3091 334.775C62.4962 334.501 67.1191 334.235 68.2613 330.563C69.4035 326.892 62.3091 334.775 62.3091 334.775Z" fill="black"/>
<g opacity="0.1">
<path opacity="0.1" d="M57.0406 268.202C57.1543 268.393 57.2397 268.615 57.2917 268.855C57.3848 268.445 57.4105 268.011 57.367 267.585C57.3235 267.159 57.2118 266.753 57.0406 266.398C56.8142 266.026 56.4843 265.808 56.2775 265.415C56.2775 265.415 56.2529 265.352 56.2381 265.317C56.124 265.61 56.0674 265.941 56.0743 266.276C56.0812 266.611 56.1515 266.937 56.2775 267.219C56.5089 267.612 56.8142 267.837 57.0406 268.202Z" fill="black"/>
<path opacity="0.1" d="M63.485 244.819C63.485 244.118 63.485 243.416 63.485 242.77C63.3964 240.313 63.0764 237.793 62.9927 235.329C62.8893 238.347 63.3619 241.513 63.485 244.574C63.485 244.644 63.4801 244.721 63.485 244.819Z" fill="black"/>
<path opacity="0.1" d="M83.2177 274.962C82.046 276.92 81.1253 271.284 80.9235 269.059C80.8915 269.445 80.8767 269.834 80.8792 270.224C80.9087 271.628 81.9032 278.963 83.2177 276.766C84.1088 275.278 84.2024 272.744 84.1433 270.406C84.0793 272.196 83.8824 273.853 83.2177 274.962Z" fill="black"/>
<path opacity="0.1" d="M81.9969 254.767C82.0971 255.711 82.1579 256.662 82.1791 257.616C82.2219 256.058 82.1609 254.497 81.9969 252.956C81.9329 252.345 81.8493 251.727 81.8099 251.109C80.5938 254.352 79.4664 257.82 77.1623 259.245C75.3751 260.347 73.2926 259.912 71.4562 260.81C71.1037 260.948 70.7849 261.222 70.5356 261.604C70.2586 262.192 70.0987 262.876 70.0728 263.583C69.5115 268.328 67.4241 272.449 64.9674 275.748C64.2526 276.904 63.3582 277.807 62.3556 278.383C61.353 278.959 60.2698 279.194 59.1924 279.068C57.8116 279.069 56.4327 278.926 55.0667 278.64C54.8549 278.593 54.647 278.516 54.4463 278.408C54.2543 278.717 54.0525 279.012 53.8457 279.3C53.9146 280.044 54.5497 280.332 55.0667 280.444C56.4325 280.734 57.8116 280.877 59.1924 280.872C60.2698 280.998 61.353 280.763 62.3556 280.187C63.3582 279.611 64.2526 278.708 64.9674 277.552C67.429 274.253 69.5115 270.132 70.0728 265.387C70.0994 264.68 70.2593 263.996 70.5356 263.408C70.7868 263.03 71.1049 262.756 71.4562 262.614C73.2926 261.716 75.3948 262.158 77.1623 261.049C79.4664 259.645 80.6086 256.135 81.8099 252.92C81.8493 253.531 81.9329 254.149 81.9969 254.767Z" fill="black"/>
<path opacity="0.1" d="M96.7764 239.078C96.6337 239.991 96.4515 241.184 95.905 241.802C94.9794 242.827 94.7924 241.661 94.428 240.601C93.4975 237.836 91.1048 239.197 89.3522 240.51L88.4118 242.23C87.985 242.944 87.6258 243.734 87.3435 244.581C87.1632 245.269 87.0152 245.972 86.9004 246.687C86.6542 247.909 86.2997 249.074 85.9797 250.26C84.707 255.024 84.053 260.079 84.0498 265.177C84.0498 265.408 84.0498 265.661 84.0498 265.921C84.1375 261.182 84.7884 256.499 85.9748 252.071C86.2948 250.885 86.6493 249.713 86.8955 248.491C87.0102 247.776 87.1583 247.073 87.3385 246.385C87.6209 245.538 87.9801 244.748 88.4069 244.034L89.3472 242.314C91.0999 240.987 93.4926 239.64 94.4231 242.405C94.7825 243.465 94.9696 244.638 95.9001 243.606C96.4466 242.995 96.6287 241.795 96.7715 240.882C97.1427 238.767 97.3084 236.589 97.2638 234.41C97.1849 235.982 97.022 237.542 96.7764 239.078Z" fill="black"/>
</g>
<path d="M108.292 307.42L108.553 307.672C108.436 307.562 108.337 307.419 108.259 307.252C108.182 307.085 108.13 306.898 108.104 306.701C108.079 306.505 108.082 306.303 108.112 306.108C108.143 305.913 108.201 305.729 108.282 305.566L120.019 281.321C120.097 281.159 120.196 281.021 120.311 280.915C120.426 280.808 120.555 280.735 120.69 280.699C120.825 280.664 120.964 280.668 121.098 280.709C121.232 280.751 121.359 280.83 121.472 280.942L121.211 280.682C121.577 281.043 121.828 281.596 121.908 282.219C121.988 282.843 121.892 283.487 121.639 284.009L110.626 306.802C110.373 307.323 109.986 307.681 109.548 307.797C109.111 307.912 108.66 307.777 108.292 307.42Z" fill="#464353"/>
<path d="M121.337 280.774L121.535 280.969L108.616 307.711L108.417 307.516C108.23 307.332 108.102 307.05 108.061 306.731C108.02 306.413 108.069 306.084 108.198 305.817L120.143 281.093C120.271 280.826 120.469 280.643 120.693 280.584C120.916 280.526 121.147 280.596 121.334 280.78L121.337 280.774Z" fill="#9F9EFF"/>
<path d="M119.885 284.429L119.849 284.393C119.811 284.356 119.759 284.369 119.733 284.423L118.775 286.406C118.748 286.46 118.758 286.535 118.796 286.572L118.833 286.608C118.871 286.645 118.923 286.632 118.949 286.577L119.907 284.595C119.933 284.54 119.924 284.466 119.885 284.429Z" fill="#464353"/>
<path d="M368.95 197.95C368.953 200.349 368.458 202.695 367.526 204.693C366.594 206.69 365.268 208.248 363.714 209.17C362.161 210.092 360.451 210.336 358.8 209.871C357.15 209.407 355.633 208.254 354.442 206.56C353.251 204.866 352.439 202.706 352.109 200.354C351.78 198.001 351.947 195.562 352.59 193.346C353.233 191.129 354.323 189.234 355.721 187.9C357.12 186.567 358.765 185.855 360.447 185.855C362.699 185.855 364.858 187.129 366.452 189.396C368.046 191.664 368.944 194.74 368.95 197.95ZM359.462 204.366L365.774 195.374C365.875 195.227 365.932 195.029 365.932 194.823C365.932 194.617 365.875 194.419 365.774 194.272L364.996 193.163C364.946 193.09 364.886 193.031 364.819 192.992C364.753 192.952 364.682 192.932 364.61 192.932C364.538 192.932 364.466 192.952 364.4 192.992C364.334 193.031 364.274 193.09 364.223 193.163L359.078 200.498L356.676 197.087C356.572 196.942 356.432 196.861 356.287 196.861C356.142 196.861 356.002 196.942 355.898 197.087L355.125 198.196C355.074 198.268 355.033 198.353 355.005 198.448C354.977 198.543 354.963 198.644 354.963 198.747C354.963 198.849 354.977 198.951 355.005 199.046C355.033 199.14 355.074 199.226 355.125 199.298L358.689 204.38C358.74 204.453 358.8 204.511 358.866 204.551C358.933 204.591 359.004 204.611 359.076 204.611C359.148 204.611 359.219 204.591 359.285 204.551C359.352 204.511 359.412 204.453 359.462 204.38V204.366Z" fill="#3ACC6C"/>
<path d="M265.95 330.998C265.95 333.396 265.451 335.74 264.517 337.733C263.583 339.727 262.255 341.281 260.701 342.198C259.148 343.116 257.438 343.356 255.789 342.888C254.139 342.42 252.624 341.266 251.435 339.57C250.246 337.875 249.437 335.715 249.108 333.363C248.78 331.012 248.949 328.574 249.592 326.359C250.236 324.144 251.326 322.251 252.724 320.919C254.122 319.586 255.766 318.875 257.448 318.875C259.703 318.875 261.865 320.153 263.46 322.426C265.054 324.7 265.95 327.783 265.95 330.998ZM256.463 337.414L262.794 328.422C262.846 328.35 262.887 328.263 262.914 328.168C262.942 328.073 262.957 327.971 262.957 327.868C262.957 327.764 262.942 327.662 262.914 327.567C262.887 327.472 262.846 327.385 262.794 327.313L261.997 326.246C261.946 326.173 261.885 326.114 261.818 326.074C261.752 326.035 261.68 326.014 261.608 326.014C261.535 326.014 261.464 326.035 261.397 326.074C261.33 326.114 261.27 326.173 261.219 326.246L256.074 333.546L253.671 330.121C253.621 330.048 253.561 329.989 253.494 329.95C253.428 329.91 253.357 329.89 253.285 329.89C253.213 329.89 253.142 329.91 253.075 329.95C253.009 329.989 252.949 330.048 252.898 330.121L252.121 331.223C252.019 331.371 251.962 331.57 251.962 331.777C251.962 331.985 252.019 332.184 252.121 332.332L255.685 337.414C255.736 337.488 255.796 337.546 255.863 337.586C255.93 337.625 256.002 337.646 256.074 337.646C256.146 337.646 256.218 337.625 256.285 337.586C256.351 337.546 256.412 337.488 256.463 337.414Z" fill="#3ACC6C"/>
<path d="M265.95 463.428C265.95 465.826 265.451 468.17 264.517 470.163C263.583 472.157 262.255 473.711 260.701 474.628C259.148 475.546 257.438 475.786 255.789 475.318C254.139 474.85 252.624 473.696 251.435 472C250.246 470.305 249.437 468.145 249.108 465.793C248.78 463.442 248.949 461.004 249.592 458.789C250.236 456.574 251.326 454.681 252.724 453.349C254.122 452.017 255.766 451.306 257.448 451.306C259.703 451.306 261.865 452.583 263.46 454.856C265.054 457.13 265.95 460.213 265.95 463.428ZM256.463 469.844L262.794 460.852C262.846 460.78 262.887 460.693 262.914 460.598C262.942 460.503 262.957 460.401 262.957 460.298C262.957 460.194 262.942 460.092 262.914 459.997C262.887 459.902 262.846 459.816 262.794 459.743L262.021 458.641C261.97 458.568 261.91 458.509 261.843 458.47C261.776 458.43 261.705 458.409 261.632 458.409C261.56 458.409 261.488 458.43 261.422 458.47C261.355 458.509 261.294 458.568 261.243 458.641L256.099 465.976L253.696 462.551C253.646 462.478 253.585 462.42 253.519 462.38C253.453 462.34 253.381 462.32 253.31 462.32C253.238 462.32 253.166 462.34 253.1 462.38C253.034 462.42 252.973 462.478 252.923 462.551L252.145 463.653C252.044 463.801 251.987 464 251.987 464.208C251.987 464.415 252.044 464.614 252.145 464.762L255.71 469.844C255.76 469.918 255.821 469.976 255.888 470.016C255.955 470.056 256.026 470.076 256.099 470.076C256.171 470.076 256.243 470.056 256.309 470.016C256.376 469.976 256.437 469.918 256.487 469.844H256.463Z" fill="#3ACC6C"/>
<defs>
<linearGradient id="paint0_linear" x1="263.661" y1="495.199" x2="263.661" y2="0" gradientUnits="userSpaceOnUse">
<stop stop-color="#808080" stop-opacity="0.25"/>
<stop offset="0.54" stop-color="#808080" stop-opacity="0.12"/>
<stop offset="1" stop-color="#808080" stop-opacity="0.1"/>
</linearGradient>
<linearGradient id="paint1_linear" x1="24480.8" y1="264027" x2="24480.8" y2="116055" gradientUnits="userSpaceOnUse">
<stop stop-color="#808080" stop-opacity="0.25"/>
<stop offset="0.54" stop-color="#808080" stop-opacity="0.12"/>
<stop offset="1" stop-color="#808080" stop-opacity="0.1"/>
</linearGradient>
</defs>
</svg>
