<svg width="35" height="29" viewBox="0 0 35 29" fill="none" xmlns="http://www.w3.org/2000/svg">
<g filter="url(#filter0_i)">
<path d="M32.5499 13.1045L31.6435 10.1006C31.8913 10.057 32.0772 9.87483 32.0772 9.65659V9.17226C32.0772 8.12067 31.0447 7.26517 29.7756 7.26517H25.6472V6.26614C25.6472 5.74867 25.1392 5.32772 24.5146 5.32772H3.47074C2.84621 5.32772 2.33816 5.74867 2.33816 6.26614V14.5C2.33816 14.7507 2.58351 14.9541 2.8862 14.9541C3.18883 14.9541 3.43424 14.7508 3.43424 14.5V6.26614C3.43424 6.24943 3.45058 6.2359 3.47074 6.2359H24.5146C24.5347 6.2359 24.5511 6.24943 24.5511 6.26614V14.5001C24.5511 14.7509 24.7964 14.9542 25.0991 14.9542C25.4017 14.9542 25.6471 14.7509 25.6471 14.5001V13.9854H32.1118C32.1124 13.9854 32.1128 13.9855 32.1133 13.9855C32.1138 13.9855 32.1143 13.9854 32.1148 13.9854C32.9103 13.9859 33.5857 14.4185 33.8177 15.0146H32.1137C31.811 15.0146 31.5656 15.2179 31.5656 15.4687V16.4374C31.5656 17.2219 32.3359 17.8601 33.2827 17.8601H33.9039V19.858H32.4709C32.0002 18.7318 30.7081 17.9206 29.1909 17.9206C27.6737 17.9206 26.3815 18.7318 25.9109 19.858H25.647V16.4373C25.647 16.1866 25.4017 15.9832 25.099 15.9832C24.7963 15.9832 24.5509 16.1865 24.5509 16.4373V19.8579H13.1809C12.7101 18.7317 11.4181 17.9205 9.90083 17.9205C8.38359 17.9205 7.09146 18.7317 6.62081 19.8579H3.47074C3.45058 19.8579 3.43424 19.8444 3.43424 19.8277V18.8287H5.80897C6.1116 18.8287 6.35701 18.6254 6.35701 18.3746C6.35701 18.1238 6.11167 17.9205 5.80897 17.9205H0.548037C0.24541 17.9205 0 18.1238 0 18.3746C0 18.6254 0.245342 18.8287 0.548037 18.8287H2.33823V19.8277C2.33823 20.3451 2.84628 20.7661 3.47081 20.7661H6.43105C6.43091 20.7762 6.43009 20.7862 6.43009 20.7963C6.43009 22.382 7.98711 23.6721 9.90083 23.6721C11.8146 23.6721 13.3716 22.382 13.3716 20.7963C13.3716 20.7861 13.3708 20.7762 13.3706 20.7661H25.7211C25.721 20.7762 25.7201 20.7862 25.7201 20.7963C25.7201 22.382 27.2772 23.6721 29.1909 23.6721C31.1046 23.6721 32.6616 22.382 32.6616 20.7963C32.6616 20.7861 32.6608 20.7762 32.6607 20.7661H34.4519C34.7545 20.7661 34.9999 20.5628 34.9999 20.312V15.4686C35 14.2728 33.9352 13.2793 32.5499 13.1045ZM25.6472 8.17329H29.7756C30.4404 8.17329 30.9812 8.62143 30.9812 9.17226V9.20251H25.6472V8.17329ZM25.6472 13.0772V10.1106H30.5168L31.4119 13.0772H25.6472ZM9.90083 22.7641C8.59141 22.7641 7.52609 21.8815 7.52609 20.7964C7.52609 19.7114 8.59141 18.8288 9.90083 18.8288C11.2103 18.8288 12.2756 19.7114 12.2756 20.7964C12.2756 21.8815 11.2103 22.7641 9.90083 22.7641ZM29.191 22.7641C27.8816 22.7641 26.8163 21.8815 26.8163 20.7964C26.8163 19.7114 27.8816 18.8288 29.191 18.8288C30.5005 18.8288 31.5658 19.7114 31.5658 20.7964C31.5658 21.8815 30.5005 22.7641 29.191 22.7641ZM33.904 16.952H33.2829C32.9404 16.952 32.6618 16.7211 32.6618 16.4373V15.9227H33.9039V16.952H33.904Z" fill="#3ACC6C"/>
<path d="M9.90064 19.858C9.27611 19.858 8.76807 20.279 8.76807 20.7964C8.76807 21.3139 9.27611 21.7349 9.90064 21.7349C10.5252 21.7349 11.0332 21.3139 11.0332 20.7964C11.0332 20.279 10.5252 19.858 9.90064 19.858Z" fill="#3ACC6C"/>
<path d="M29.1912 19.858C28.5666 19.858 28.0586 20.279 28.0586 20.7964C28.0586 21.3139 28.5666 21.7349 29.1912 21.7349C29.8157 21.7349 30.3238 21.3139 30.3238 20.7964C30.3238 20.279 29.8157 19.858 29.1912 19.858Z" fill="#3ACC6C"/>
<path d="M22.761 17.9207H14.5773C14.2747 17.9207 14.0293 18.124 14.0293 18.3748C14.0293 18.6256 14.2746 18.8289 14.5773 18.8289H22.761C23.0637 18.8289 23.3091 18.6256 23.3091 18.3748C23.3091 18.124 23.0637 17.9207 22.761 17.9207Z" fill="#3ACC6C"/>
<path d="M8.73161 15.9833H1.71698C1.41436 15.9833 1.16895 16.1866 1.16895 16.4374C1.16895 16.6882 1.41429 16.8915 1.71698 16.8915H8.73161C9.03424 16.8915 9.27965 16.6882 9.27965 16.4374C9.27965 16.1866 9.03424 15.9833 8.73161 15.9833Z" fill="#3ACC6C"/>
<path d="M19.0567 9.81978C18.8428 9.6425 18.4957 9.6425 18.2817 9.81984L13.4083 13.8578L10.873 11.7572C10.659 11.5798 10.312 11.5798 10.098 11.7572C9.88399 11.9345 9.88399 12.222 10.098 12.3993L13.0208 14.821C13.1278 14.9097 13.2681 14.954 13.4083 14.954C13.5485 14.954 13.6888 14.9097 13.7957 14.821L19.0567 10.462C19.2707 10.2846 19.2707 9.99712 19.0567 9.81978Z" fill="#3ACC6C"/>
</g>
<defs>
<filter id="filter0_i" x="0" y="0" width="35" height="33" filterUnits="userSpaceOnUse" color-interpolation-filters="sRGB">
<feFlood flood-opacity="0" result="BackgroundImageFix"/>
<feBlend mode="normal" in="SourceGraphic" in2="BackgroundImageFix" result="shape"/>
<feColorMatrix in="SourceAlpha" type="matrix" values="0 0 0 0 0 0 0 0 0 0 0 0 0 0 0 0 0 0 127 0" result="hardAlpha"/>
<feOffset dy="4"/>
<feGaussianBlur stdDeviation="2"/>
<feComposite in2="hardAlpha" operator="arithmetic" k2="-1" k3="1"/>
<feColorMatrix type="matrix" values="0 0 0 0 0 0 0 0 0 0 0 0 0 0 0 0 0 0 0.25 0"/>
<feBlend mode="normal" in2="shape" result="effect1_innerShadow"/>
</filter>
</defs>
</svg>
